# 3ds Max Wavefront OBJ Exporter v0.97b - (c)2007 guruware
# File Created: 01.10.2016 22:29:14

mtllib Chain-Link-Fence.mtl

#
# object Chain_Link_Fence
#

v  -136.8691 0.3426 -0.0001
v  -140.2762 4.5851 -0.0001
v  -140.2762 2.5638 -0.0001
v  -137.5468 -0.3352 -0.0001
v  42.8516 0.3378 -0.0001
v  -133.2705 176.4645 -0.0001
v  -133.9483 175.7867 -0.0001
v  42.1739 -0.3400 -0.0001
v  98.4915 176.4584 -0.0001
v  -77.6400 0.3409 -0.0001
v  -76.9622 -0.3369 -0.0001
v  99.1691 175.7806 -0.0001
v  62.5474 176.4593 -0.0001
v  -113.5841 0.3419 -0.0001
v  -112.9063 -0.3358 -0.0001
v  63.2249 175.7815 -0.0001
v  74.5288 176.4591 -0.0001
v  -101.6027 0.3415 -0.0001
v  -100.9250 -0.3363 -0.0001
v  75.2063 175.7813 -0.0001
v  90.7771 0.3365 -0.0001
v  -85.3450 176.4632 -0.0001
v  -86.0228 175.7854 -0.0001
v  90.0994 -0.3413 -0.0001
v  -64.9808 0.3406 -0.0001
v  -140.2762 76.7029 -0.0001
v  -140.2762 74.6816 -0.0001
v  -65.6586 -0.3371 -0.0001
v  30.8702 0.3380 -0.0001
v  -140.2762 172.1322 -0.0001
v  -140.2762 170.1109 -0.0001
v  30.1924 -0.3397 -0.0001
v  122.4543 176.4577 -0.0001
v  -53.6772 0.3402 -0.0001
v  -52.9994 -0.3376 -0.0001
v  123.1318 175.7800 -0.0001
v  -29.0367 0.3396 -0.0001
v  -140.2762 111.9830 -0.0001
v  -140.2762 109.9616 -0.0001
v  -29.7144 -0.3380 -0.0001
v  134.4357 176.4575 -0.0001
v  -41.6958 0.3400 -0.0001
v  -41.0180 -0.3378 -0.0001
v  135.1132 175.7798 -0.0001
v  -52.9994 0.3402 -0.0001
v  -140.2762 88.2713 -0.0001
v  -140.2762 86.2500 -0.0001
v  -53.6772 -0.3376 -0.0001
v  142.6974 9.5259 -0.0001
v  -24.2357 176.4636 -0.0001
v  -24.9135 175.7858 -0.0001
v  142.0196 8.8482 -0.0001
v  142.7451 172.7864 -0.0001
v  -29.7144 0.3398 -0.0001
v  -29.0367 -0.3382 -0.0001
v  143.4227 172.1086 -0.0001
v  18.8889 0.3385 -0.0001
v  -140.2762 160.2307 -0.0001
v  -140.2762 158.2094 -0.0001
v  18.2111 -0.3393 -0.0001
v  142.5728 175.1719 2.6206
v  142.5690 -0.0078 2.6235
v  144.4730 -0.0080 0.0026
v  144.4768 175.1718 -0.0002
v  6.9075 0.3387 -0.0001
v  -140.2762 148.5092 -0.0001
v  -140.2762 146.4881 -0.0001
v  6.2297 -0.3391 -0.0001
v  138.7026 0.3352 -0.0001
v  -37.4195 176.4621 -0.0001
v  -38.0973 175.7843 -0.0001
v  138.0249 -0.3426 -0.0001
v  -142.4273 175.1794 2.6207
v  -142.4320 -0.0004 2.6208
v  -139.3509 -0.0004 1.6196
v  -139.3462 175.1794 1.6196
v  139.4918 175.1719 -1.6200
v  139.4880 -0.0078 -1.6172
v  139.4880 -0.0078 1.6224
v  139.4917 175.1720 1.6197
v  142.5765 176.9893 2.6178
v  139.4954 176.9896 1.6170
v  -5.0739 0.3391 -0.0001
v  -140.2762 136.1532 -0.0001
v  -140.2762 134.1319 -0.0001
v  -5.7517 -0.3386 -0.0001
v  -112.9063 0.3419 -0.0001
v  -140.2762 28.7070 -0.0001
v  -140.2762 26.6857 -0.0001
v  -113.5841 -0.3358 -0.0001
v  142.5727 175.1718 -2.6209
v  142.5689 -0.0080 -2.6181
v  -139.3509 -0.0004 -1.6198
v  -139.3462 175.1794 -1.6198
v  -142.4320 -0.0004 -2.6210
v  -142.4273 175.1794 -2.6210
v  -88.9436 0.3413 -0.0001
v  -140.2762 52.1781 -0.0001
v  -140.2762 50.1567 -0.0001
v  -89.6213 -0.3365 -0.0001
v  102.7585 0.3363 -0.0001
v  -73.3636 176.4630 -0.0001
v  -74.0414 175.7852 -0.0001
v  102.0807 -0.3415 -0.0001
v  114.7399 0.3359 -0.0001
v  -61.3822 176.4625 -0.0001
v  -62.0600 175.7850 -0.0001
v  114.0621 -0.3419 -0.0001
v  110.4729 176.4582 -0.0001
v  -65.6586 0.3406 -0.0001
v  -64.9808 -0.3371 -0.0001
v  111.1505 175.7804 -0.0001
v  -100.9250 0.3415 -0.0001
v  -140.2762 40.2872 -0.0001
v  -140.2762 38.2661 -0.0001
v  -101.6027 -0.3363 -0.0001
v  -144.3315 175.1796 -0.0001
v  -142.4226 176.9970 2.6206
v  -144.3270 176.9972 -0.0001
v  -41.0180 0.3400 -0.0001
v  -140.2762 100.5417 -0.0001
v  -140.2762 98.5204 -0.0001
v  -41.6958 -0.3378 -0.0001
v  50.5660 176.4597 -0.0001
v  -125.5655 0.3422 -0.0001
v  -124.8877 -0.3356 -0.0001
v  51.2435 175.7819 -0.0001
v  66.8144 0.3372 -0.0001
v  -109.3077 176.4638 -0.0001
v  -109.9855 175.7861 -0.0001
v  66.1366 -0.3406 -0.0001
v  78.7957 0.3367 -0.0001
v  -97.3264 176.4636 -0.0001
v  -98.0041 175.7858 -0.0001
v  78.1179 -0.3410 -0.0001
v  54.8330 0.3374 -0.0001
v  -121.2891 176.4642 -0.0001
v  -121.9669 175.7865 -0.0001
v  54.1552 -0.3404 -0.0001
v  -76.9622 0.3409 -0.0001
v  -140.2762 64.4314 -0.0001
v  -140.2762 62.4101 -0.0001
v  -77.6400 -0.3369 -0.0001
v  126.7212 0.3356 -0.0001
v  -49.4008 176.4623 -0.0001
v  -50.0786 175.7845 -0.0001
v  126.0435 -0.3421 -0.0001
v  38.5846 176.4599 -0.0001
v  -137.5468 0.3426 -0.0001
v  -136.8691 -0.3354 -0.0001
v  39.2622 175.7821 -0.0001
v  86.5101 176.4588 -0.0001
v  -89.6213 0.3413 -0.0001
v  -88.9436 -0.3365 -0.0001
v  87.1877 175.7811 -0.0001
v  -124.8877 0.3422 -0.0001
v  -140.2762 16.7075 -0.0001
v  -140.2762 14.6862 -0.0001
v  -125.5655 -0.3356 -0.0001
v  -144.3359 -0.0002 -0.0001
v  143.2839 32.9009 -0.0001
v  -0.2729 176.4630 -0.0001
v  -0.9507 175.7852 -0.0001
v  142.6062 32.2231 -0.0001
v  142.9565 69.1746 -0.0001
v  35.6712 176.4621 -0.0001
v  34.9934 175.7843 -0.0001
v  142.2787 68.4969 -0.0001
v  142.9385 81.4276 -0.0001
v  47.9058 176.4636 -0.0001
v  47.2280 175.7858 -0.0001
v  142.2607 80.7499 -0.0001
v  142.8526 45.3147 -0.0001
v  11.7085 176.4625 -0.0001
v  11.0307 175.7850 -0.0001
v  142.1748 44.6369 -0.0001
v  143.5483 56.5982 -0.0001
v  23.6898 176.4623 -0.0001
v  23.0121 175.7845 -0.0001
v  142.8705 55.9205 -0.0001
v  143.2321 20.9710 -0.0001
v  -12.2543 176.4632 -0.0001
v  -12.9321 175.7854 -0.0001
v  142.5544 20.2933 -0.0001
v  143.2032 105.1258 -0.0001
v  71.8685 176.4630 -0.0001
v  71.1908 175.7852 -0.0001
v  142.5254 104.4480 -0.0001
v  143.0373 141.2381 -0.0001
v  107.8126 176.4621 -0.0001
v  107.1349 175.7843 -0.0001
v  142.3595 140.5603 -0.0001
v  143.8186 153.0068 -0.0001
v  120.3636 176.4636 -0.0001
v  119.6858 175.7858 -0.0001
v  143.1408 152.3290 -0.0001
v  142.9323 117.3778 -0.0001
v  83.8499 176.4625 -0.0001
v  83.1721 175.7850 -0.0001
v  142.2545 116.7000 -0.0001
v  143.4630 128.8186 -0.0001
v  95.8313 176.4623 -0.0001
v  95.1535 175.7845 -0.0001
v  142.7853 128.1408 -0.0001
v  143.3095 93.0309 -0.0001
v  59.8871 176.4632 -0.0001
v  59.2094 175.7854 -0.0001
v  142.6318 92.3531 -0.0001
v  143.7037 165.0904 -0.0001
v  132.3450 176.4632 -0.0001
v  131.6672 175.7854 -0.0001
v  143.0259 164.4126 -0.0001
v  -17.0553 0.3393 -0.0001
v  -140.2762 123.8845 -0.0001
v  -140.2762 121.8632 -0.0001
v  -17.7331 -0.3384 -0.0001
v  136.7234 0.3426 -0.0001
v  140.1306 4.5851 -0.0001
v  140.1306 2.5638 -0.0001
v  137.4012 -0.3352 -0.0001
v  64.8352 0.3406 -0.0001
v  140.1306 76.7029 -0.0001
v  140.1306 74.6816 -0.0001
v  65.5130 -0.3371 -0.0001
v  -139.7710 175.9949 -0.0001
v  -143.1782 171.7523 -0.0001
v  -143.1782 173.7736 -0.0001
v  -140.4488 176.6726 -0.0001
v  28.8910 0.3396 -0.0001
v  140.1306 111.9830 -0.0001
v  140.1306 109.9616 -0.0001
v  29.5688 -0.3380 -0.0001
v  52.8538 0.3402 -0.0001
v  140.1306 88.2713 -0.0001
v  140.1306 86.2500 -0.0001
v  53.5315 -0.3376 -0.0001
v  -19.0345 0.3385 -0.0001
v  140.1306 160.2307 -0.0001
v  140.1306 158.2094 -0.0001
v  -18.3567 -0.3393 -0.0001
v  -7.0531 0.3387 -0.0001
v  140.1306 148.5092 -0.0001
v  140.1306 146.4881 -0.0001
v  -6.3753 -0.3391 -0.0001
v  4.9283 0.3391 -0.0001
v  140.1306 136.1532 -0.0001
v  140.1306 134.1319 -0.0001
v  5.6060 -0.3386 -0.0001
v  112.7607 0.3419 -0.0001
v  140.1306 28.7070 -0.0001
v  140.1306 26.6857 -0.0001
v  113.4385 -0.3358 -0.0001
v  88.7979 0.3413 -0.0001
v  140.1306 52.1781 -0.0001
v  140.1306 50.1567 -0.0001
v  89.4757 -0.3365 -0.0001
v  100.7793 0.3415 -0.0001
v  140.1306 40.2872 -0.0001
v  140.1306 38.2661 -0.0001
v  101.4571 -0.3363 -0.0001
v  40.8724 0.3400 -0.0001
v  140.1306 100.5417 -0.0001
v  140.1306 98.5204 -0.0001
v  41.5502 -0.3378 -0.0001
v  76.8165 0.3409 -0.0001
v  140.1306 64.4314 -0.0001
v  140.1306 62.4101 -0.0001
v  77.4943 -0.3369 -0.0001
v  124.7421 0.3422 -0.0001
v  140.1306 16.7075 -0.0001
v  140.1306 14.6862 -0.0001
v  125.4198 -0.3356 -0.0001
v  16.9097 0.3393 -0.0001
v  140.1306 123.8845 -0.0001
v  140.1306 121.8632 -0.0001
v  17.5874 -0.3384 -0.0001
v  -67.8827 175.9968 -0.0001
v  -143.1782 99.6345 -0.0001
v  -143.1782 101.6558 -0.0001
v  -68.5606 176.6745 -0.0001
v  27.9683 175.9994 -0.0001
v  -143.1782 4.2053 -0.0001
v  -143.1782 6.2266 -0.0001
v  27.2905 176.6772 -0.0001
v  -31.9386 175.9979 -0.0001
v  -143.1782 64.3545 -0.0001
v  -143.1782 66.3758 -0.0001
v  -32.6164 176.6754 -0.0001
v  -55.9014 175.9972 -0.0001
v  -143.1782 88.0661 -0.0001
v  -143.1782 90.0874 -0.0001
v  -56.5791 176.6750 -0.0001
v  15.9869 175.9990 -0.0001
v  -143.1782 16.1067 -0.0001
v  -143.1782 18.1280 -0.0001
v  15.3092 176.6767 -0.0001
v  4.0056 175.9988 -0.0001
v  -143.1782 27.8283 -0.0001
v  -143.1782 29.8494 -0.0001
v  3.3277 176.6765 -0.0001
v  -7.9758 175.9983 -0.0001
v  -143.1782 40.1842 -0.0001
v  -143.1782 42.2055 -0.0001
v  -8.6536 176.6761 -0.0001
v  -115.8083 175.9955 -0.0001
v  -143.1782 147.6304 -0.0001
v  -143.1782 149.6518 -0.0001
v  -116.4860 176.6733 -0.0001
v  -91.8455 175.9962 -0.0001
v  -143.1782 124.1594 -0.0001
v  -143.1782 126.1807 -0.0001
v  -92.5233 176.6740 -0.0001
v  -103.8269 175.9960 -0.0001
v  -143.1782 136.0502 -0.0001
v  -143.1782 138.0713 -0.0001
v  -104.5046 176.6737 -0.0001
v  -43.9200 175.9975 -0.0001
v  -143.1782 75.7957 -0.0001
v  -143.1782 77.8170 -0.0001
v  -44.5977 176.6752 -0.0001
v  -79.8642 175.9966 -0.0001
v  -143.1782 111.9060 -0.0001
v  -143.1782 113.9274 -0.0001
v  -80.5419 176.6744 -0.0001
v  -127.7896 175.9953 -0.0001
v  -143.1782 159.6299 -0.0001
v  -143.1782 161.6512 -0.0001
v  -128.4675 176.6730 -0.0001
v  -19.9573 175.9981 -0.0001
v  -143.1782 52.4529 -0.0001
v  -143.1782 54.4742 -0.0001
v  -20.6350 176.6759 -0.0001
v  144.4806 176.9893 -0.0029
v  142.5765 176.9893 -2.6237
v  139.4956 176.9893 -1.6227
v  -139.3415 176.9970 1.6196
v  -139.3415 176.9970 -1.6198
v  -142.4226 176.9970 -2.6210
# 338 vertices

vn 0.0000 -0.0000 1.0000
vn 0.0000 0.0000 1.0000
vn -0.0000 0.0000 1.0000
vn -0.0000 -0.0000 1.0000
vn 0.8090 -0.0000 0.5878
vn 0.3090 -0.0000 0.9511
vn -1.0000 0.0000 -0.0000
vn -0.3090 0.0021 0.9511
vn -0.3090 -0.0000 -0.9511
vn 1.0000 -0.0000 0.0000
vn 0.3090 -0.0000 -0.9511
vn -0.8090 0.0020 0.5878
vn 0.8090 -0.0000 -0.5878
vn -0.8090 0.0000 -0.5878
vn 0.0000 0.0000 -1.0000
vn -0.0000 -0.0000 -1.0000
vn 0.0000 -0.0000 -1.0000
vn -0.0000 0.0000 -1.0000
vn 0.8090 -0.0008 0.5878
vn 0.0000 1.0000 -0.0000
vn -0.3090 0.0000 0.9511
vn -0.3090 -0.0008 -0.9511
vn 0.8090 -0.0026 -0.5878
vn 0.3090 -0.0008 0.9511
vn -0.0000 -0.0008 -1.0000
vn 0.3090 -0.0008 -0.9510
vn -0.8090 0.0000 0.5878
vn -0.8090 0.0020 -0.5878
vn -0.0000 -1.0000 0.0000
vn 0.0000 0.0007 1.0000
# 30 vertex normals

vt 0.5124 0.7159 0.0000
vt 0.5110 0.7026 0.0000
vt 0.5145 0.7061 0.0000
vt 0.5148 0.7159 0.0000
vt 0.9812 0.0000 0.0000
vt 0.9812 0.6141 0.0000
vt 0.9788 0.6141 0.0000
vt 0.9788 0.0000 0.0000
vt 0.9835 0.0000 0.0000
vt 0.9835 0.6141 0.0000
vt 0.9694 0.6141 0.0000
vt 0.9694 0.0000 0.0000
vt 0.9718 0.0000 0.0000
vt 0.9718 0.6141 0.0000
vt 0.9859 0.6141 0.0000
vt 0.9859 0.0000 0.0000
vt 0.9882 0.0000 0.0000
vt 0.9882 0.6141 0.0000
vt 0.9906 0.0000 0.0000
vt 0.9906 0.6141 0.0000
vt 0.9525 0.8785 0.0000
vt 0.9506 0.6141 0.0000
vt 0.9541 0.6176 0.0000
vt 0.9548 0.8785 0.0000
vt 0.9222 0.0000 0.0000
vt 0.9222 0.5979 0.0000
vt 0.9187 0.5944 0.0000
vt 0.9198 0.0000 0.0000
vt 0.9929 0.0000 0.0000
vt 0.9929 0.6141 0.0000
vt 0.9506 0.4302 0.0000
vt 0.9506 0.8188 0.0000
vt 0.9471 0.8152 0.0000
vt 0.9482 0.4302 0.0000
vt 0.9619 0.6141 0.0000
vt 0.9619 0.9196 0.0000
vt 0.9584 0.9160 0.0000
vt 0.9595 0.6141 0.0000
vt 0.9953 0.5821 0.0000
vt 0.9953 0.0000 0.0000
vt 0.9976 0.0000 0.0000
vt 0.9976 0.5821 0.0000
vt 0.9929 0.6013 0.0000
vt 0.9953 0.6013 0.0000
vt 0.9307 0.5562 0.0000
vt 0.9294 0.0000 0.0000
vt 0.9329 0.0035 0.0000
vt 0.9331 0.5562 0.0000
vt 0.8816 0.4319 0.0000
vt 0.8816 0.0000 0.0000
vt 0.8881 0.0000 0.0000
vt 0.8881 0.4319 0.0000
vt 0.9401 0.0000 0.0000
vt 0.9401 0.5149 0.0000
vt 0.9366 0.5114 0.0000
vt 0.9377 0.0000 0.0000
vt 0.9553 0.6141 0.0000
vt 0.9553 0.0000 0.0000
vt 0.9577 0.0000 0.0000
vt 0.9577 0.6141 0.0000
vt 0.4299 0.7027 0.0000
vt 0.0000 0.7027 0.0000
vt 0.0000 0.6951 0.0000
vt 0.4299 0.6951 0.0000
vt 0.9104 0.0000 0.0000
vt 0.9104 0.4319 0.0000
vt 0.9024 0.4319 0.0000
vt 0.9024 0.0000 0.0000
vt 0.4299 0.0076 0.0000
vt 0.4299 0.0000 0.0000
vt 0.4344 0.0000 0.0000
vt 0.4344 0.0076 0.0000
vt 0.9412 0.9450 0.0000
vt 0.9401 0.4725 0.0000
vt 0.9436 0.4760 0.0000
vt 0.9435 0.9450 0.0000
vt 0.4848 0.7026 0.0000
vt 0.4848 0.7998 0.0000
vt 0.4814 0.7962 0.0000
vt 0.4825 0.7026 0.0000
vt 0.4388 0.0000 0.0000
vt 0.8688 0.0000 0.0000
vt 0.8688 0.0076 0.0000
vt 0.4388 0.0077 0.0000
vt 0.9024 0.8639 0.0000
vt 0.9104 0.8639 0.0000
vt 0.4388 0.6950 0.0000
vt 0.8688 0.6950 0.0000
vt 0.8688 0.7026 0.0000
vt 0.4388 0.7026 0.0000
vt 0.4495 0.8824 0.0000
vt 0.4486 0.7026 0.0000
vt 0.4521 0.7061 0.0000
vt 0.4518 0.8824 0.0000
vt 0.9600 0.0000 0.0000
vt 0.9600 0.6141 0.0000
vt 0.9765 0.6141 0.0000
vt 0.9765 0.0000 0.0000
vt 0.9671 0.6141 0.0000
vt 0.9671 0.0000 0.0000
vt 0.4708 0.7026 0.0000
vt 0.4708 0.8408 0.0000
vt 0.4673 0.8373 0.0000
vt 0.4685 0.7026 0.0000
vt 0.8881 0.8683 0.0000
vt 0.8945 0.8683 0.0000
vt 0.8945 0.8728 0.0000
vt 0.8881 0.8728 0.0000
vt 0.9257 0.5979 0.0000
vt 0.9257 0.9456 0.0000
vt 0.9222 0.9421 0.0000
vt 0.9233 0.5979 0.0000
vt 0.9624 0.6141 0.0000
vt 0.9624 0.0000 0.0000
vt 0.9647 0.0000 0.0000
vt 0.9647 0.6141 0.0000
vt 0.9530 0.6141 0.0000
vt 0.9530 0.0000 0.0000
vt 0.8945 0.0000 0.0000
vt 0.8945 0.4319 0.0000
vt 0.4416 0.7026 0.0000
vt 0.4416 0.9247 0.0000
vt 0.4381 0.9212 0.0000
vt 0.4393 0.7026 0.0000
vt 0.9741 0.6141 0.0000
vt 0.9741 0.0000 0.0000
vt 0.9506 0.0000 0.0000
vt 0.5010 0.7027 0.0000
vt 0.5010 0.7580 0.0000
vt 0.4976 0.7544 0.0000
vt 0.4987 0.7026 0.0000
vt 0.8816 0.8683 0.0000
vt 0.8816 0.4364 0.0000
vt 0.8881 0.4364 0.0000
vt 0.9471 0.4725 0.0000
vt 0.9471 0.9730 0.0000
vt 0.9447 0.9730 0.0000
vt 0.9447 0.4725 0.0000
vt 0.9765 0.9882 0.0000
vt 0.9741 0.9882 0.0000
vt 0.9624 0.9455 0.0000
vt 0.9647 0.9455 0.0000
vt 0.9377 0.9722 0.0000
vt 0.9377 0.5149 0.0000
vt 0.9401 0.9722 0.0000
vt 0.9953 1.0000 0.0000
vt 0.9976 1.0000 0.0000
vt 0.9976 0.5422 0.0000
vt 1.0000 0.0000 0.0000
vt 1.0000 0.5422 0.0000
vt 0.4556 0.9513 0.0000
vt 0.4556 0.7026 0.0000
vt 0.4580 0.7026 0.0000
vt 0.4580 0.9513 0.0000
vt 0.4848 0.8254 0.0000
vt 0.4872 0.7026 0.0000
vt 0.4872 0.8254 0.0000
vt 0.4953 0.7844 0.0000
vt 0.4953 0.7026 0.0000
vt 0.4976 0.7026 0.0000
vt 0.4976 0.7844 0.0000
vt 0.4673 0.7026 0.0000
vt 0.4673 0.9086 0.0000
vt 0.4650 0.9086 0.0000
vt 0.4650 0.7026 0.0000
vt 0.4790 0.8687 0.0000
vt 0.4790 0.7026 0.0000
vt 0.4814 0.7026 0.0000
vt 0.4814 0.8687 0.0000
vt 0.9706 0.6141 0.0000
vt 0.9706 0.9050 0.0000
vt 0.9682 0.9050 0.0000
vt 0.9682 0.6141 0.0000
vt 0.5010 0.7422 0.0000
vt 0.5010 0.7026 0.0000
vt 0.5034 0.7026 0.0000
vt 0.5034 0.7422 0.0000
vt 0.9158 0.9451 0.0000
vt 0.9152 0.5149 0.0000
vt 0.9187 0.5184 0.0000
vt 0.9181 0.9451 0.0000
vt 0.5048 0.7159 0.0000
vt 0.5069 0.7061 0.0000
vt 0.5072 0.7159 0.0000
vt 0.8982 0.6875 0.0000
vt 0.8982 0.9519 0.0000
vt 0.8947 0.9484 0.0000
vt 0.8959 0.6875 0.0000
vt 0.5086 0.7159 0.0000
vt 0.5072 0.7026 0.0000
vt 0.5107 0.7061 0.0000
vt 0.5110 0.7159 0.0000
vt 0.9264 0.9448 0.0000
vt 0.9257 0.5562 0.0000
vt 0.9292 0.5597 0.0000
vt 0.9288 0.9448 0.0000
vt 0.9682 0.9196 0.0000
vt 0.9647 0.9160 0.0000
vt 0.9659 0.6141 0.0000
vt 0.9366 0.0000 0.0000
vt 0.9366 0.5562 0.0000
vt 0.9331 0.5527 0.0000
vt 0.9342 0.0000 0.0000
vt 0.9122 0.5149 0.0000
vt 0.9139 0.0035 0.0000
vt 0.9146 0.5149 0.0000
vt 0.9412 0.4725 0.0000
vt 0.9436 0.0035 0.0000
vt 0.9436 0.4725 0.0000
vt 0.4767 0.7997 0.0000
vt 0.4749 0.7026 0.0000
vt 0.4784 0.7061 0.0000
vt 0.4790 0.7997 0.0000
vt 0.4460 0.8824 0.0000
vt 0.4451 0.7026 0.0000
vt 0.4486 0.7061 0.0000
vt 0.4484 0.8824 0.0000
vt 0.4590 0.8408 0.0000
vt 0.4615 0.7061 0.0000
vt 0.4614 0.8408 0.0000
vt 0.9222 0.9456 0.0000
vt 0.9187 0.9421 0.0000
vt 0.9198 0.5979 0.0000
vt 0.4451 0.9247 0.0000
vt 0.4416 0.9212 0.0000
vt 0.4428 0.7026 0.0000
vt 0.4889 0.7579 0.0000
vt 0.4907 0.7061 0.0000
vt 0.4912 0.7579 0.0000
vt 0.9471 0.4267 0.0000
vt 0.9482 0.0000 0.0000
vt 0.9001 0.9519 0.0000
vt 0.9017 0.6910 0.0000
vt 0.9024 0.9519 0.0000
vt 0.9257 0.0000 0.0000
vt 0.9222 0.5943 0.0000
vt 0.9233 0.0000 0.0000
vt 0.9342 0.9448 0.0000
vt 0.9335 0.5562 0.0000
vt 0.9370 0.5598 0.0000
vt 0.9366 0.9448 0.0000
vt 0.9560 0.9195 0.0000
vt 0.9548 0.6141 0.0000
vt 0.9583 0.6176 0.0000
vt 0.9584 0.9195 0.0000
vt 0.9271 0.5562 0.0000
vt 0.9292 0.0035 0.0000
vt 0.9294 0.5562 0.0000
vt 0.9163 0.5149 0.0000
vt 0.9146 0.0000 0.0000
vt 0.9181 0.0035 0.0000
vt 0.9187 0.5149 0.0000
vt 0.9436 0.0000 0.0000
vt 0.9471 0.0035 0.0000
vt 0.4726 0.7997 0.0000
vt 0.4743 0.7061 0.0000
vt 0.4749 0.7997 0.0000
vt 0.4530 0.8824 0.0000
vt 0.4521 0.7026 0.0000
vt 0.4556 0.7061 0.0000
vt 0.4554 0.8824 0.0000
vt 0.4625 0.8408 0.0000
vt 0.4615 0.7026 0.0000
vt 0.4650 0.7061 0.0000
vt 0.4649 0.8408 0.0000
vt 0.9312 0.9040 0.0000
vt 0.9329 0.5598 0.0000
vt 0.9335 0.9040 0.0000
vt 0.4358 0.9247 0.0000
vt 0.4344 0.7026 0.0000
vt 0.4379 0.7061 0.0000
vt 0.4381 0.9247 0.0000
vt 0.4929 0.7579 0.0000
vt 0.4912 0.7026 0.0000
vt 0.4947 0.7061 0.0000
vt 0.4953 0.7579 0.0000
vt 0.9110 0.9451 0.0000
vt 0.9104 0.5149 0.0000
vt 0.9139 0.5184 0.0000
vt 0.9134 0.9451 0.0000
vt 0.8752 0.0000 0.0000
vt 0.8816 0.0047 0.0000
vt 0.8792 0.0123 0.0000
vt 0.8712 0.0123 0.0000
vt 0.8688 0.0047 0.0000
vt 0.0000 0.0076 0.0000
vt 0.0000 0.0000 0.0000
vt 0.8945 0.4364 0.0000
vt 0.4344 0.6951 0.0000
vt 0.4344 0.6950 0.0000
vt 0.8816 0.8728 0.0000
vt 0.8712 0.6998 0.0000
vt 0.8792 0.6998 0.0000
vt 0.8816 0.7074 0.0000
vt 0.8752 0.7121 0.0000
vt 0.8688 0.7074 0.0000
vt 0.8945 0.6875 0.0000
vt 0.9024 0.6875 0.0000
# 298 texture coords

g Chain_Link_Fence
usemtl wire_204204204
s off
f 1/1/1 2/2/1 3/3/1 4/4/1 
f 5/5/2 6/6/2 7/7/2 8/8/2 
f 9/9/2 10/10/2 11/6/2 12/5/2 
f 13/11/3 14/12/3 15/13/3 16/14/3 
f 17/15/2 18/16/2 19/17/2 20/18/2 
f 21/19/1 22/20/1 23/18/1 24/17/1 
f 25/21/1 26/22/1 27/23/1 28/24/1 
f 29/25/1 30/26/1 31/27/1 32/28/1 
f 33/20/1 34/19/1 35/29/1 36/30/1 
f 37/31/3 38/32/3 39/33/3 40/34/3 
f 41/16/4 42/15/4 43/10/4 44/9/4 
f 45/35/1 46/36/1 47/37/1 48/38/1 
f 49/39/1 50/40/1 51/41/1 52/42/1 
f 53/43/4 54/29/4 55/40/4 56/44/4 
f 57/45/1 58/46/1 59/47/1 60/48/1 
f 61/49/5 62/50/5 63/51/5 64/52/5 
f 65/53/1 66/54/1 67/55/1 68/56/1 
f 69/57/2 70/58/2 71/59/2 72/60/2 
f 73/61/6 74/62/6 75/63/6 76/64/6 
f 77/65/7 78/66/7 79/67/7 80/68/7 
f 80/69/8 61/70/8 81/71/8 82/72/8 
f 83/73/3 84/74/3 85/75/3 86/76/3 
f 87/77/3 88/78/3 89/79/3 90/80/3 
f 91/81/9 92/82/9 78/83/9 77/84/9 
f 76/85/10 75/67/10 93/66/10 94/86/10 
f 94/87/11 93/88/11 95/89/11 96/90/11 
f 97/91/3 98/92/3 99/93/3 100/94/3 
f 101/60/2 102/59/2 103/95/2 104/96/2 
f 105/97/4 106/98/4 107/8/4 108/7/4 
f 109/99/2 110/100/2 111/12/2 112/11/2 
f 113/101/3 114/102/3 115/103/3 116/104/3 
f 117/105/12 73/106/12 118/107/12 119/108/12 
f 120/109/2 121/110/2 122/111/2 123/112/2 
f 124/113/1 125/114/1 126/115/1 127/116/1 
f 128/117/2 129/118/2 130/58/2 131/57/2 
f 64/52/13 63/51/13 92/119/13 91/120/13 
f 132/100/3 133/99/3 134/116/3 135/115/3 
f 136/96/2 137/95/2 138/114/2 139/113/2 
f 140/121/1 141/122/1 142/123/1 143/124/1 
f 144/98/4 145/97/4 146/125/4 147/126/4 
f 148/22/3 149/127/3 150/118/3 151/117/3 
f 152/14/2 153/13/2 154/126/2 155/125/2 
f 156/128/4 157/129/4 158/130/4 159/131/4 
f 96/132/14 95/133/14 160/134/14 117/105/14 
f 161/135/1 162/136/1 163/137/1 164/138/1 
f 165/97/3 166/139/3 167/140/3 168/125/3 
f 169/141/2 170/113/2 171/116/2 172/142/2 
f 173/143/3 174/144/3 175/54/3 176/145/3 
f 177/146/3 178/39/3 179/42/3 180/147/3 
f 181/148/1 182/41/1 183/149/1 184/150/1 
f 185/151/1 186/152/1 187/153/1 188/154/1 
f 189/155/3 190/77/3 191/156/3 192/157/3 
f 193/158/3 194/159/3 195/160/3 196/161/3 
f 197/162/3 198/163/3 199/164/3 200/165/3 
f 201/166/3 202/167/3 203/168/3 204/169/3 
f 205/170/1 206/171/1 207/172/1 208/173/1 
f 209/174/1 210/175/1 211/176/1 212/177/1 
f 213/178/3 214/179/3 215/180/3 216/181/3 
f 217/182/15 218/176/15 219/183/15 220/184/15 
f 221/185/15 222/186/15 223/187/15 224/188/15 
f 225/189/16 226/190/16 227/191/16 228/192/16 
f 229/193/16 230/194/16 231/195/16 232/196/16 
f 233/173/15 234/197/15 235/198/15 236/199/15 
f 237/200/15 238/201/15 239/202/15 240/203/15 
f 241/204/15 242/65/15 243/205/15 244/206/15 
f 245/207/16 246/53/16 247/208/16 248/209/16 
f 249/210/16 250/211/16 251/212/16 252/213/16 
f 253/214/16 254/215/16 255/216/16 256/217/16 
f 257/218/16 258/153/16 259/219/16 260/220/16 
f 261/26/17 262/221/17 263/222/17 264/223/17 
f 265/215/15 266/224/15 267/225/15 268/226/15 
f 269/227/18 270/156/18 271/228/18 272/229/18 
f 273/127/16 274/31/16 275/230/16 276/231/16 
f 277/232/17 278/185/17 279/233/17 280/234/17 
f 281/235/17 282/109/17 283/236/17 284/237/17 
f 285/238/16 286/239/16 287/240/16 288/241/16 
f 289/242/17 290/243/17 291/244/17 292/245/17 
f 293/246/17 294/235/17 295/247/17 296/248/17 
f 297/249/17 298/250/17 299/251/17 300/252/17 
f 301/138/17 302/253/17 303/254/17 304/135/17 
f 305/255/17 306/101/17 307/256/17 308/257/17 
f 309/258/17 310/259/17 311/260/17 312/261/17 
f 313/262/17 314/263/17 315/264/17 316/265/17 
f 317/266/17 318/248/17 319/267/17 320/268/17 
f 321/269/16 322/270/16 323/271/16 324/272/16 
f 325/273/17 326/274/17 327/275/17 328/276/17 
f 329/277/17 330/278/17 331/279/17 332/280/17 
f 81/133/19 61/49/19 64/52/19 333/134/19 
f 333/281/20 334/282/20 335/283/20 82/284/20 
f 333/281/20 82/284/20 81/285/20 
f 79/286/21 62/287/21 61/70/21 80/69/21 
f 334/71/22 91/81/22 77/84/22 335/72/22 
f 333/134/23 64/52/23 91/120/23 334/288/23 
f 118/270/24 73/61/24 76/64/24 336/289/24 
f 337/290/25 335/72/25 77/84/25 94/87/25 
f 337/290/26 94/87/26 96/90/26 338/270/26 
f 160/134/27 74/288/27 73/106/27 117/105/27 
f 338/291/28 96/132/28 117/105/28 119/108/28 
f 336/292/20 337/293/20 338/294/20 119/295/20 
f 336/292/20 119/295/20 118/296/20 
f 94/297/29 77/119/29 80/68/29 76/298/29 
f 76/64/30 80/69/30 82/72/30 336/289/30 
f 336/292/20 82/284/20 335/283/20 337/293/20 
# 101 polygons - 2 triangles

