{
  "accessors": [
    {
      "bufferView": 2,
      "componentType": 5126,
      "count": 4000,
      "max": [
        84.3425064086914,
        21.38578987121582,
        1.0
      ],
      "min": [
        12.965957641601563,
        -38.853126525878906,
        -1.0
      ],
      "type": "VEC3"
    },
    {
      "bufferView": 2,
      "byteOffset": 48000,
      "componentType": 5126,
      "count": 4000,
      "max": [
        0.9951848387718201,
        0.9951905012130737,
        0.9951850771903992
      ],
      "min": [
        -0.9951942563056946,
        -1.0,
        -0.995185375213623
      ],
      "type": "VEC3"
    },
    {
      "bufferView": 1,
      "componentType": 5126,
      "count": 4000,
      "max": [
        1.0,
        1.0
      ],
      "min": [
        0.0,
        0.01000000536441803
      ],
      "type": "VEC2"
    },
    {
      "bufferView": 0,
      "componentType": 5125,
      "count": 6042,
      "type": "SCALAR"
    },
    {
      "bufferView": 2,
      "byteOffset": 96000,
      "componentType": 5126,
      "count": 65532,
      "max": [
        0.9496597051620483,
        57.30978775024414,
        0.31364718079566956
      ],
      "min": [
        -66.69808197021484,
        20.473735809326172,
        -0.04869925603270531
      ],
      "type": "VEC3"
    },
    {
      "bufferView": 2,
      "byteOffset": 882384,
      "componentType": 5126,
      "count": 65532,
      "max": [
        0.9808305501937866,
        0.7277968525886536,
        0.9999834895133972
      ],
      "min": [
        -0.9808305501937866,
        -0.731747031211853,
        -0.9999834895133972
      ],
      "type": "VEC3"
    },
    {
      "bufferView": 1,
      "byteOffset": 32000,
      "componentType": 5126,
      "count": 65532,
      "max": [
        1.0,
        1.0
      ],
      "min": [
        0.0,
        0.0
      ],
      "type": "VEC2"
    },
    {
      "bufferView": 0,
      "byteOffset": 24168,
      "componentType": 5125,
      "count": 98298,
      "type": "SCALAR"
    },
    {
      "bufferView": 2,
      "byteOffset": 1668768,
      "componentType": 5126,
      "count": 65532,
      "max": [
        0.9496597051620483,
        23.3678035736084,
        0.31364718079566956
      ],
      "min": [
        -66.69808197021484,
        14.816740989685059,
        -0.04869925603270531
      ],
      "type": "VEC3"
    },
    {
      "bufferView": 2,
      "byteOffset": 2455152,
      "componentType": 5126,
      "count": 65532,
      "max": [
        0.9808305501937866,
        0.7277970910072327,
        0.9999834895133972
      ],
      "min": [
        -0.9808305501937866,
        -0.731747031211853,
        -0.9999834895133972
      ],
      "type": "VEC3"
    },
    {
      "bufferView": 1,
      "byteOffset": 556256,
      "componentType": 5126,
      "count": 65532,
      "max": [
        1.0,
        1.0
      ],
      "min": [
        0.0,
        0.0
      ],
      "type": "VEC2"
    },
    {
      "bufferView": 0,
      "byteOffset": 417360,
      "componentType": 5125,
      "count": 98298,
      "type": "SCALAR"
    },
    {
      "bufferView": 2,
      "byteOffset": 3241536,
      "componentType": 5126,
      "count": 65532,
      "max": [
        0.9496597051620483,
        17.71080780029297,
        0.31364718079566956
      ],
      "min": [
        -66.69808197021484,
        0.6717514395713806,
        -0.04869925603270531
      ],
      "type": "VEC3"
    },
    {
      "bufferView": 2,
      "byteOffset": 4027920,
      "componentType": 5126,
      "count": 65532,
      "max": [
        0.9808303117752075,
        0.7277973890304565,
        0.9999834895133972
      ],
      "min": [
        -0.9808305501937866,
        -0.7317442297935486,
        -0.9999834895133972
      ],
      "type": "VEC3"
    },
    {
      "bufferView": 1,
      "byteOffset": 1080512,
      "componentType": 5126,
      "count": 65532,
      "max": [
        1.0,
        1.0
      ],
      "min": [
        0.0,
        0.0
      ],
      "type": "VEC2"
    },
    {
      "bufferView": 0,
      "byteOffset": 810552,
      "componentType": 5125,
      "count": 98298,
      "type": "SCALAR"
    },
    {
      "bufferView": 2,
      "byteOffset": 4814304,
      "componentType": 5126,
      "count": 65532,
      "max": [
        0.9496597051620483,
        14.88231086730957,
        0.31364718079566956
      ],
      "min": [
        -66.69808197021484,
        0.6717514395713806,
        -0.04869925603270531
      ],
      "type": "VEC3"
    },
    {
      "bufferView": 2,
      "byteOffset": 5600688,
      "componentType": 5126,
      "count": 65532,
      "max": [
        0.9808303117752075,
        0.7277973890304565,
        0.9999834895133972
      ],
      "min": [
        -0.9808305501937866,
        -0.7317442297935486,
        -0.9999834895133972
      ],
      "type": "VEC3"
    },
    {
      "bufferView": 1,
      "byteOffset": 1604768,
      "componentType": 5126,
      "count": 65532,
      "max": [
        1.0,
        1.0
      ],
      "min": [
        0.0,
        0.0
      ],
      "type": "VEC2"
    },
    {
      "bufferView": 0,
      "byteOffset": 1203744,
      "componentType": 5125,
      "count": 98298,
      "type": "SCALAR"
    },
    {
      "bufferView": 2,
      "byteOffset": 6387072,
      "componentType": 5126,
      "count": 65532,
      "max": [
        0.9496597051620483,
        34.68179702758789,
        0.31364718079566956
      ],
      "min": [
        -66.69808197021484,
        11.988243103027344,
        -0.04869925603270531
      ],
      "type": "VEC3"
    },
    {
      "bufferView": 2,
      "byteOffset": 7173456,
      "componentType": 5126,
      "count": 65532,
      "max": [
        0.9808305501937866,
        0.7277968525886536,
        0.9999834895133972
      ],
      "min": [
        -0.9808305501937866,
        -0.7317510843276978,
        -0.9999834895133972
      ],
      "type": "VEC3"
    },
    {
      "bufferView": 1,
      "byteOffset": 2129024,
      "componentType": 5126,
      "count": 65532,
      "max": [
        1.0,
        1.0
      ],
      "min": [
        0.0,
        0.0
      ],
      "type": "VEC2"
    },
    {
      "bufferView": 0,
      "byteOffset": 1596936,
      "componentType": 5125,
      "count": 98298,
      "type": "SCALAR"
    },
    {
      "bufferView": 2,
      "byteOffset": 7959840,
      "componentType": 5126,
      "count": 65532,
      "max": [
        0.9496597051620483,
        43.167293548583984,
        0.31364718079566956
      ],
      "min": [
        -66.69808197021484,
        31.787729263305664,
        -0.04869925603270531
      ],
      "type": "VEC3"
    },
    {
      "bufferView": 2,
      "byteOffset": 8746224,
      "componentType": 5126,
      "count": 65532,
      "max": [
        0.9808305501937866,
        0.7277965545654297,
        0.9999834895133972
      ],
      "min": [
        -0.9808305501937866,
        -0.7317510843276978,
        -0.9999834895133972
      ],
      "type": "VEC3"
    },
    {
      "bufferView": 1,
      "byteOffset": 2653280,
      "componentType": 5126,
      "count": 65532,
      "max": [
        1.0,
        1.0
      ],
      "min": [
        0.0,
        0.0
      ],
      "type": "VEC2"
    },
    {
      "bufferView": 0,
      "byteOffset": 1990128,
      "componentType": 5125,
      "count": 98298,
      "type": "SCALAR"
    },
    {
      "bufferView": 2,
      "byteOffset": 9532608,
      "componentType": 5126,
      "count": 65532,
      "max": [
        0.9496597051620483,
        48.82429122924805,
        0.31364718079566956
      ],
      "min": [
        -66.69808197021484,
        40.27322769165039,
        -0.04869925603270531
      ],
      "type": "VEC3"
    },
    {
      "bufferView": 2,
      "byteOffset": 10318992,
      "componentType": 5126,
      "count": 65532,
      "max": [
        0.9808305501937866,
        0.7277965545654297,
        0.9999834895133972
      ],
      "min": [
        -0.9808305501937866,
        -0.7317510843276978,
        -0.9999834895133972
      ],
      "type": "VEC3"
    },
    {
      "bufferView": 1,
      "byteOffset": 3177536,
      "componentType": 5126,
      "count": 65532,
      "max": [
        1.0,
        1.0
      ],
      "min": [
        0.0,
        0.0
      ],
      "type": "VEC2"
    },
    {
      "bufferView": 0,
      "byteOffset": 2383320,
      "componentType": 5125,
      "count": 98298,
      "type": "SCALAR"
    },
    {
      "bufferView": 2,
      "byteOffset": 11105376,
      "componentType": 5126,
      "count": 65532,
      "max": [
        0.9496597051620483,
        54.48128890991211,
        0.31364718079566956
      ],
      "min": [
        -66.69808197021484,
        45.93022537231445,
        -0.04869925603270531
      ],
      "type": "VEC3"
    },
    {
      "bufferView": 2,
      "byteOffset": 11891760,
      "componentType": 5126,
      "count": 65532,
      "max": [
        0.9808305501937866,
        0.7277965545654297,
        0.9999834895133972
      ],
      "min": [
        -0.9808305501937866,
        -0.7317510843276978,
        -0.9999834895133972
      ],
      "type": "VEC3"
    },
    {
      "bufferView": 1,
      "byteOffset": 3701792,
      "componentType": 5126,
      "count": 65532,
      "max": [
        1.0,
        1.0
      ],
      "min": [
        0.0,
        0.0
      ],
      "type": "VEC2"
    },
    {
      "bufferView": 0,
      "byteOffset": 2776512,
      "componentType": 5125,
      "count": 98298,
      "type": "SCALAR"
    },
    {
      "bufferView": 2,
      "byteOffset": 12678144,
      "componentType": 5126,
      "count": 8224,
      "max": [
        0.9496597051620483,
        57.30978775024414,
        0.31364718079566956
      ],
      "min": [
        -66.69808197021484,
        51.587223052978516,
        -0.04869924113154411
      ],
      "type": "VEC3"
    },
    {
      "bufferView": 2,
      "byteOffset": 12776832,
      "componentType": 5126,
      "count": 8224,
      "max": [
        0.9808305501937866,
        0.7277965545654297,
        0.9999834895133972
      ],
      "min": [
        -0.9808305501937866,
        -0.7317510843276978,
        -0.9999834895133972
      ],
      "type": "VEC3"
    },
    {
      "bufferView": 1,
      "byteOffset": 4226048,
      "componentType": 5126,
      "count": 8224,
      "max": [
        1.0,
        1.0
      ],
      "min": [
        0.0,
        0.0
      ],
      "type": "VEC2"
    },
    {
      "bufferView": 0,
      "byteOffset": 3169704,
      "componentType": 5125,
      "count": 12336,
      "type": "SCALAR"
    }
  ],
  "asset": {
    "extras": {
      "author": "GIR__ (https://sketchfab.com/GIR__)",
      "license": "CC-BY-4.0 (http://creativecommons.org/licenses/by/4.0/)",
      "source": "https://sketchfab.com/3d-models/chain-link-fence-piece-2bf0312246084eb39e9cbbaef0cddce9",
      "title": "Chain Link Fence Piece"
    },
    "generator": "Sketchfab-11.12.0",
    "version": "2.0"
  },
  "bufferViews": [
    {
      "buffer": 0,
      "byteLength": 3219048,
      "name": "floatBufferViews",
      "target": 34963
    },
    {
      "buffer": 0,
      "byteLength": 4291840,
      "byteOffset": 3219048,
      "byteStride": 8,
      "name": "floatBufferViews",
      "target": 34962
    },
    {
      "buffer": 0,
      "byteLength": 12875520,
      "byteOffset": 7510888,
      "byteStride": 12,
      "name": "floatBufferViews",
      "target": 34962
    }
  ],
  "buffers": [
    {
      "byteLength": 20386408,
      "uri": "scene.bin"
    }
  ],
  "materials": [
    {
      "doubleSided": true,
      "name": "Heavy_Duty_Metal.001",
      "pbrMetallicRoughness": {
        "baseColorFactor": [
          0.438097,
          0.438097,
          0.438097,
          1.0
        ],
        "roughnessFactor": 0.5
      }
    }
  ],
  "meshes": [
    {
      "name": "Object_0",
      "primitives": [
        {
          "attributes": {
            "NORMAL": 1,
            "POSITION": 0,
            "TEXCOORD_0": 2
          },
          "indices": 3,
          "material": 0,
          "mode": 4
        }
      ]
    },
    {
      "name": "Object_1",
      "primitives": [
        {
          "attributes": {
            "NORMAL": 5,
            "POSITION": 4,
            "TEXCOORD_0": 6
          },
          "indices": 7,
          "material": 0,
          "mode": 4
        }
      ]
    },
    {
      "name": "Object_2",
      "primitives": [
        {
          "attributes": {
            "NORMAL": 9,
            "POSITION": 8,
            "TEXCOORD_0": 10
          },
          "indices": 11,
          "material": 0,
          "mode": 4
        }
      ]
    },
    {
      "name": "Object_3",
      "primitives": [
        {
          "attributes": {
            "NORMAL": 13,
            "POSITION": 12,
            "TEXCOORD_0": 14
          },
          "indices": 15,
          "material": 0,
          "mode": 4
        }
      ]
    },
    {
      "name": "Object_4",
      "primitives": [
        {
          "attributes": {
            "NORMAL": 17,
            "POSITION": 16,
            "TEXCOORD_0": 18
          },
          "indices": 19,
          "material": 0,
          "mode": 4
        }
      ]
    },
    {
      "name": "Object_5",
      "primitives": [
        {
          "attributes": {
            "NORMAL": 21,
            "POSITION": 20,
            "TEXCOORD_0": 22
          },
          "indices": 23,
          "material": 0,
          "mode": 4
        }
      ]
    },
    {
      "name": "Object_6",
      "primitives": [
        {
          "attributes": {
            "NORMAL": 25,
            "POSITION": 24,
            "TEXCOORD_0": 26
          },
          "indices": 27,
          "material": 0,
          "mode": 4
        }
      ]
    },
    {
      "name": "Object_7",
      "primitives": [
        {
          "attributes": {
            "NORMAL": 29,
            "POSITION": 28,
            "TEXCOORD_0": 30
          },
          "indices": 31,
          "material": 0,
          "mode": 4
        }
      ]
    },
    {
      "name": "Object_8",
      "primitives": [
        {
          "attributes": {
            "NORMAL": 33,
            "POSITION": 32,
            "TEXCOORD_0": 34
          },
          "indices": 35,
          "material": 0,
          "mode": 4
        }
      ]
    },
    {
      "name": "Object_9",
      "primitives": [
        {
          "attributes": {
            "NORMAL": 37,
            "POSITION": 36,
            "TEXCOORD_0": 38
          },
          "indices": 39,
          "material": 0,
          "mode": 4
        }
      ]
    }
  ],
  "nodes": [
    {
      "children": [
        1
      ],
      "matrix": [
        1.0,
        0.0,
        0.0,
        0.0,
        0.0,
        2.220446049250313e-16,
        -1.0,
        0.0,
        0.0,
        1.0,
        2.220446049250313e-16,
        0.0,
        0.0,
        0.0,
        0.0,
        1.0
      ],
      "name": "Sketchfab_model"
    },
    {
      "children": [
        2
      ],
      "name": "root"
    },
    {
      "children": [
        3,
        5
      ],
      "matrix": [
        1.0,
        0.0,
        0.0,
        0.0,
        0.0,
        2.220446049250313e-16,
        1.0,
        0.0,
        0.0,
        -1.0,
        2.220446049250313e-16,
        0.0,
        0.0,
        0.0,
        0.0,
        1.0
      ],
      "name": "GLTF_SceneRootNode"
    },
    {
      "children": [
        4
      ],
      "matrix": [
        1.0,
        0.0,
        0.0,
        0.0,
        0.0,
        1.0,
        0.0,
        0.0,
        0.0,
        0.0,
        1.0,
        0.0,
        -89.10391998291016,
        37.63313674926758,
        0.0,
        1.0
      ],
      "name": "Cylinder.002_1"
    },
    {
      "mesh": 0,
      "name": "Object_4"
    },
    {
      "children": [
        6,
        7,
        8,
        9,
        10,
        11,
        12,
        13,
        14
      ],
      "matrix": [
        1.0,
        0.0,
        0.0,
        0.0,
        0.0,
        1.0,
        0.0,
        0.0,
        0.0,
        0.0,
        1.0,
        0.0,
        -7.561608791351318,
        0.0,
        0.0,
        1.0
      ],
      "name": "Chain Link.001_2"
    },
    {
      "mesh": 1,
      "name": "Object_6"
    },
    {
      "mesh": 2,
      "name": "Object_7"
    },
    {
      "mesh": 3,
      "name": "Object_8"
    },
    {
      "mesh": 4,
      "name": "Object_9"
    },
    {
      "mesh": 5,
      "name": "Object_10"
    },
    {
      "mesh": 6,
      "name": "Object_11"
    },
    {
      "mesh": 7,
      "name": "Object_12"
    },
    {
      "mesh": 8,
      "name": "Object_13"
    },
    {
      "mesh": 9,
      "name": "Object_14"
    }
  ],
  "scene": 0,
  "scenes": [
    {
      "name": "Sketchfab_Scene",
      "nodes": [
        0
      ]
    }
  ]
}
