<?xml version="1.0" encoding="UTF-8" standalone="no"?>
<svg
   version="1.1"
   x="0px"
   y="0px"
   viewBox="0 0 581 446"
   enable-background="new 0 0 100 100"
   xml:space="preserve"
   id="svg654"
   sodipodi:docname="basketball-court.svg"
   inkscape:version="1.1 (c68e22c387, 2021-05-23)"
   width="581"
   height="446"
   xmlns:inkscape="http://www.inkscape.org/namespaces/inkscape"
   xmlns:sodipodi="http://sodipodi.sourceforge.net/DTD/sodipodi-0.dtd"
   xmlns="http://www.w3.org/2000/svg"
   xmlns:svg="http://www.w3.org/2000/svg"><defs
     id="defs658" /><sodipodi:namedview
     id="namedview656"
     pagecolor="#ffffff"
     bordercolor="#666666"
     borderopacity="1.0"
     inkscape:pageshadow="2"
     inkscape:pageopacity="0.0"
     inkscape:pagecheckerboard="0"
     showgrid="false"
     inkscape:zoom="0.7844171"
     inkscape:cx="397.11016"
     inkscape:cy="321.89507"
     inkscape:window-width="1920"
     inkscape:window-height="1017"
     inkscape:window-x="-8"
     inkscape:window-y="-8"
     inkscape:window-maximized="1"
     inkscape:current-layer="svg654"
     width="749px" /><g
     aria-label="Basketball "
     id="text11735"
     style="font-size:93.4837px;line-height:1.25;font-family:Poppins;-inkscape-font-specification:Poppins;fill:#bbbbbb"><g
       id="g1399"><path
         style="fill:#bbbbbb;stroke-width:1.0149"
         d="m 4.23,23.926 v 287.74 H 578.76 V 23.926 Z m 554.54052,170.53422 h -71.60989 v -53.32419 h 71.60989 z m -137.40727,-26.6621 c 0,-14.70339 16.4406,-26.66634 36.64155,-26.66634 h 7.33414 v 53.32419 h -7.33414 c -20.19512,0.004 -36.64155,-11.9587 -36.64155,-26.65785 z m 36.64738,-42.53209 c -8.49431,0 -16.54554,1.35326 -23.83304,3.73736 21.68177,-31.502416 68.83481,-54.121714 124.59293,-57.023365 v 53.286005 z m 0,85.06842 h 100.75989 v 53.28601 C 503.0124,260.71881 455.8477,238.09951 434.16593,206.59285 c 7.2875,2.3841 15.35039,3.7416 23.8447,3.7416 z M 280.08019,197.3958 c -7.08928,-1.37446 -16.55257,-3.97068 -21.88119,-7.84803 -16.48141,-11.9884 -16.48141,-31.50666 0,-43.49506 5.32862,-3.87735 14.79774,-6.46932 21.88119,-7.84803 z M 300.08,138.20468 c 7.10677,1.37871 16.55938,3.97068 21.888,7.84803 16.48724,11.9884 16.48724,31.50666 0,43.49506 -5.32862,3.87735 -14.78123,6.46933 -21.888,7.84803 z M 24.22948,210.33445 h 95.92682 c 8.49431,0 16.53971,-1.3575 23.82721,-3.73736 -21.05796,30.58187 -66.11803,52.8321 -119.75403,56.75611 z m 132.56254,-42.53633 c 0,14.69491 -16.43477,26.6621 -36.64155,26.6621 h -7.4041 v -53.32419 h 7.4041 c 20.20678,0 36.64155,11.96294 36.64155,26.66209 z m -65.84985,26.6621 H 24.22948 v -53.32419 h 66.71269 z m 29.2083,-69.19419 H 24.22948 V 72.247282 c 53.64183,3.919774 98.70773,26.161518 119.75986,56.751868 -7.2875,-2.3841 -15.34456,-3.73312 -23.83887,-3.73312 z M 24.22948,279.32925 c 86.53469,-5.59119 154.36674,-53.47267 154.37257,-111.53113 0,-58.06694 -67.83788,-105.948418 -154.37257,-111.531126 V 43.926496 h 255.85033 l 3.8e-4,77.971244 c -12.96009,1.60355 -25.8164,6.03238 -35.30181,12.93017 -24.98738,18.18198 -24.98738,47.76693 0,65.94891 9.48541,6.90203 22.34755,11.32662 35.30181,12.9344 l -3.8e-4,77.95853 H 24.22948 Z M 300.08,291.6655 v -77.95852 c 12.97175,-1.60778 25.82866,-6.03238 35.30241,-12.9344 24.99321,-18.18198 24.99321,-47.76694 0,-65.94892 -9.47375,-6.89778 -22.33649,-11.32237 -35.30241,-12.9344 V 43.926496 H 558.77052 V 56.02519 c -88.84337,4.089461 -159.21147,52.64544 -159.21147,111.77293 0,59.14022 70.3681,107.69196 159.21147,111.77717 v 12.09021 z"
         id="path652"
         sodipodi:nodetypes="ccccccccccsscccsscccsscccscccccccccccscccssccsscccccscccscccccccsccccccccccccsccc" /><path
         d="m 72.507,399.626 q 3.8,0.6 6.9,3.1 3.2,2.5 5,6.2 1.9,3.7 1.9,7.9 0,5.3 -2.7,9.6 -2.7,4.2 -7.9,6.7 -5.1,2.4 -12.1,2.4 h -26 v -69.7 h 25 q 7.1,0 12.1,2.4 5,2.3 7.5,6.3 2.5,4 2.5,9 0,6.2 -3.4,10.3 -3.3,4 -8.8,5.8 z m -25.8,-3.7 h 15.3 q 6.4,0 9.9,-3 3.5,-3 3.5,-8.3 0,-5.3 -3.5,-8.3 -3.5,-3 -10.1,-3 h -15.1 z m 16.1,32.1 q 6.8,0 10.6,-3.2 3.8,-3.2 3.8,-8.9 0,-5.8 -4,-9.1 -4,-3.4 -10.7,-3.4 h -15.8 v 24.6 z"
         style="font-size:100px"
         id="path96835" /><path
         d="m 95.506896,407.926 q 0,-8.4 3.4,-14.7 3.400004,-6.4 9.300004,-9.9 6,-3.5 13.3,-3.5 7.2,0 12.5,3.1 5.3,3.1 7.9,7.8 v -10 h 9.2 v 54.8 h -9.2 v -10.2 q -2.7,4.8 -8.1,8 -5.3,3.1 -12.4,3.1 -7.3,0 -13.2,-3.6 -5.9,-3.6 -9.300004,-10.1 -3.4,-6.5 -3.4,-14.8 z m 46.400004,0.1 q 0,-6.2 -2.5,-10.8 -2.5,-4.6 -6.8,-7 -4.2,-2.5 -9.3,-2.5 -5.1,0 -9.3,2.4 -4.2,2.4 -6.7,7 -2.5,4.6 -2.5,10.8 0,6.3 2.5,11 2.5,4.6 6.7,7.1 4.2,2.4 9.3,2.4 5.1,0 9.3,-2.4 4.3,-2.5 6.8,-7.1 2.5,-4.7 2.5,-10.9 z"
         style="font-size:100px"
         id="path96837" /><path
         d="m 185.90676,436.426 q -6.3,0 -11.3,-2.1 -5,-2.2 -7.9,-6 -2.9,-3.9 -3.2,-8.9 h 9.4 q 0.4,4.1 3.8,6.7 3.5,2.6 9.1,2.6 5.2,0 8.2,-2.3 3,-2.3 3,-5.8 0,-3.6 -3.2,-5.3 -3.2,-1.8 -9.9,-3.5 -6.1,-1.6 -10,-3.2 -3.8,-1.7 -6.6,-4.9 -2.7,-3.3 -2.7,-8.6 0,-4.2 2.5,-7.7 2.5,-3.5 7.1,-5.5 4.6,-2.1 10.5,-2.1 9.1,0 14.7,4.6 5.6,4.6 6,12.6 h -9.1 q -0.3,-4.3 -3.5,-6.9 -3.1,-2.6 -8.4,-2.6 -4.9,0 -7.8,2.1 -2.9,2.1 -2.9,5.5 0,2.7 1.7,4.5 1.8,1.7 4.4,2.8 2.7,1 7.4,2.3 5.9,1.6 9.6,3.2 3.7,1.5 6.3,4.6 2.7,3.1 2.8,8.1 0,4.5 -2.5,8.1 -2.5,3.6 -7.1,5.7 -4.5,2 -10.4,2 z"
         style="font-size:100px"
         id="path96839" /><path
         d="m 249.3067,435.526 -21.5,-24.2 v 24.2 h -9.1 v -74 h 9.1 v 43.5 l 21.1,-24.3 h 12.7 l -25.8,27.3 25.9,27.5 z"
         style="font-size:100px"
         id="path96841" /><path
         d="m 320.20664,406.026 q 0,2.6 -0.3,5.5 h -43.8 q 0.5,8.1 5.5,12.7 5.1,4.5 12.3,4.5 5.9,0 9.8,-2.7 4,-2.8 5.6,-7.4 h 9.8 q -2.2,7.9 -8.8,12.9 -6.6,4.9 -16.4,4.9 -7.8,0 -14,-3.5 -6.1,-3.5 -9.6,-9.9 -3.5,-6.5 -3.5,-15 0,-8.5 3.4,-14.9 3.4,-6.4 9.5,-9.8 6.2,-3.5 14.2,-3.5 7.8,0 13.8,3.4 6,3.4 9.2,9.4 3.3,5.9 3.3,13.4 z m -9.4,-1.9 q 0,-5.2 -2.3,-8.9 -2.3,-3.8 -6.3,-5.7 -3.9,-2 -8.7,-2 -6.9,0 -11.8,4.4 -4.8,4.4 -5.5,12.2 z"
         style="font-size:100px"
         id="path96843" /><path
         d="m 343.30655,388.226 v 32.3 q 0,4 1.7,5.7 1.7,1.6 5.9,1.6 h 6.7 v 7.7 h -8.2 q -7.6,0 -11.4,-3.5 -3.8,-3.5 -3.8,-11.5 v -32.3 h -7.1 v -7.5 h 7.1 v -13.8 h 9.1 v 13.8 h 14.3 v 7.5 z"
         style="font-size:100px"
         id="path96845" /><path
         d="m 377.70639,390.926 q 2.8,-4.9 8.2,-8 5.4,-3.1 12.3,-3.1 7.4,0 13.3,3.5 5.9,3.5 9.3,9.9 3.4,6.3 3.4,14.7 0,8.3 -3.4,14.8 -3.4,6.5 -9.4,10.1 -5.9,3.6 -13.2,3.6 -7.1,0 -12.5,-3.1 -5.3,-3.1 -8,-7.9 v 10.1 h -9.1 v -74 h 9.1 z m 37.2,17 q 0,-6.2 -2.5,-10.8 -2.5,-4.6 -6.8,-7 -4.2,-2.4 -9.3,-2.4 -5,0 -9.3,2.5 -4.2,2.4 -6.8,7.1 -2.5,4.6 -2.5,10.7 0,6.2 2.5,10.9 2.6,4.6 6.8,7.1 4.3,2.4 9.3,2.4 5.1,0 9.3,-2.4 4.3,-2.5 6.8,-7.1 2.5,-4.7 2.5,-11 z"
         style="font-size:100px"
         id="path96847" /><path
         d="m 432.80624,407.926 q 0,-8.4 3.4,-14.7 3.4,-6.4 9.3,-9.9 6,-3.5 13.3,-3.5 7.2,0 12.5,3.1 5.3,3.1 7.9,7.8 v -10 h 9.2 v 54.8 h -9.2 v -10.2 q -2.7,4.8 -8.1,8 -5.3,3.1 -12.4,3.1 -7.3,0 -13.2,-3.6 -5.9,-3.6 -9.3,-10.1 -3.4,-6.5 -3.4,-14.8 z m 46.4,0.1 q 0,-6.2 -2.5,-10.8 -2.5,-4.6 -6.8,-7 -4.2,-2.5 -9.3,-2.5 -5.1,0 -9.3,2.4 -4.2,2.4 -6.7,7 -2.5,4.6 -2.5,10.8 0,6.3 2.5,11 2.5,4.6 6.7,7.1 4.2,2.4 9.3,2.4 5.1,0 9.3,-2.4 4.3,-2.5 6.8,-7.1 2.5,-4.7 2.5,-10.9 z"
         style="font-size:100px"
         id="path96849" /><path
         d="m 512.9061,361.526 v 74 h -9.1 v -74 z"
         style="font-size:100px"
         id="path96851" /><path
         d="m 537.50595,361.526 v 74 h -9.1 v -74 z"
         style="font-size:100px"
         id="path96853" /></g></g><rect
     style="fill:none;stroke-width:1.015"
     id="rect1070"
     width="574.53003"
     height="412.67352"
     x="4.23"
     y="23.926001"
     clip-path="none" /><rect
     style="fill:none;stroke-width:1.015"
     id="rect1423"
     width="574.53003"
     height="412.67352"
     x="4.23"
     y="23.926001" /><rect
     style="fill:none;stroke-width:1.015"
     id="rect1425"
     width="620.43768"
     height="446.487"
     x="4.23"
     y="23.926001" /><rect
     style="fill:none;stroke-width:1.015"
     id="rect1427"
     width="45.907654"
     height="33.813477"
     x="578.76001"
     y="436.59952" /><rect
     style="fill:none;stroke-width:1.015"
     id="rect1429"
     width="574.53003"
     height="412.67352"
     x="4.23"
     y="23.926001" /></svg>
