<?xml version="1.0" encoding="UTF-8" standalone="no"?>
<svg
   version="1.1"
   x="0px"
   y="0px"
   viewBox="0 0 581 446"
   enable-background="new 0 0 100 100"
   xml:space="preserve"
   id="svg654"
   sodipodi:docname="basketball-court-full.svg"
   inkscape:version="1.1 (c68e22c387, 2021-05-23)"
   xmlns:inkscape="http://www.inkscape.org/namespaces/inkscape"
   xmlns:sodipodi="http://sodipodi.sourceforge.net/DTD/sodipodi-0.dtd"
   xmlns="http://www.w3.org/2000/svg"
   xmlns:svg="http://www.w3.org/2000/svg"><defs
     id="defs658" /><sodipodi:namedview
     id="namedview656"
     pagecolor="#ffffff"
     bordercolor="#666666"
     borderopacity="1.0"
     inkscape:pageshadow="2"
     inkscape:pageopacity="0.0"
     inkscape:pagecheckerboard="0"
     showgrid="false"
     inkscape:zoom="1.5688342"
     inkscape:cx="322.8512"
     inkscape:cy="387.86763"
     inkscape:window-width="1920"
     inkscape:window-height="1017"
     inkscape:window-x="-8"
     inkscape:window-y="-8"
     inkscape:window-maximized="1"
     inkscape:current-layer="svg654" /><g
     aria-label="Basketball
"
     id="text11735"
     style="font-size:93.4837px;line-height:1.25;font-family:Poppins;-inkscape-font-specification:Poppins;fill:#bbbbbb"><path
       d="m 72.507,399.626 q 3.8,0.6 6.9,3.1 3.2,2.5 5,6.2 1.9,3.7 1.9,7.9 0,5.3 -2.7,9.6 -2.7,4.2 -7.9,6.7 -5.1,2.4 -12.1,2.4 h -26 v -69.7 h 25 q 7.1,0 12.1,2.4 5,2.3 7.5,6.3 2.5,4 2.5,9 0,6.2 -3.4,10.3 -3.3,4 -8.8,5.8 z m -25.8,-3.7 h 15.3 q 6.4,0 9.9,-3 3.5,-3 3.5,-8.3 0,-5.3 -3.5,-8.3 -3.5,-3 -10.1,-3 h -15.1 z m 16.1,32.1 q 6.8,0 10.6,-3.2 3.8,-3.2 3.8,-8.9 0,-5.8 -4,-9.1 -4,-3.4 -10.7,-3.4 h -15.8 v 24.6 z"
       style="font-size:100px;fill:#00669b"
       id="path136885" /><path
       d="m 95.506896,407.926 q 0,-8.4 3.4,-14.7 3.400004,-6.4 9.300004,-9.9 6,-3.5 13.3,-3.5 7.2,0 12.5,3.1 5.3,3.1 7.9,7.8 v -10 h 9.2 v 54.8 h -9.2 v -10.2 q -2.7,4.8 -8.1,8 -5.3,3.1 -12.4,3.1 -7.3,0 -13.2,-3.6 -5.9,-3.6 -9.300004,-10.1 -3.4,-6.5 -3.4,-14.8 z m 46.400004,0.1 q 0,-6.2 -2.5,-10.8 -2.5,-4.6 -6.8,-7 -4.2,-2.5 -9.3,-2.5 -5.1,0 -9.3,2.4 -4.2,2.4 -6.7,7 -2.5,4.6 -2.5,10.8 0,6.3 2.5,11 2.5,4.6 6.7,7.1 4.2,2.4 9.3,2.4 5.1,0 9.3,-2.4 4.3,-2.5 6.8,-7.1 2.5,-4.7 2.5,-10.9 z"
       style="font-size:100px;fill:#00669b"
       id="path136887" /><path
       d="m 185.90676,436.426 q -6.3,0 -11.3,-2.1 -5,-2.2 -7.9,-6 -2.9,-3.9 -3.2,-8.9 h 9.4 q 0.4,4.1 3.8,6.7 3.5,2.6 9.1,2.6 5.2,0 8.2,-2.3 3,-2.3 3,-5.8 0,-3.6 -3.2,-5.3 -3.2,-1.8 -9.9,-3.5 -6.1,-1.6 -10,-3.2 -3.8,-1.7 -6.6,-4.9 -2.7,-3.3 -2.7,-8.6 0,-4.2 2.5,-7.7 2.5,-3.5 7.1,-5.5 4.6,-2.1 10.5,-2.1 9.1,0 14.7,4.6 5.6,4.6 6,12.6 h -9.1 q -0.3,-4.3 -3.5,-6.9 -3.1,-2.6 -8.4,-2.6 -4.9,0 -7.8,2.1 -2.9,2.1 -2.9,5.5 0,2.7 1.7,4.5 1.8,1.7 4.4,2.8 2.7,1 7.4,2.3 5.9,1.6 9.6,3.2 3.7,1.5 6.3,4.6 2.7,3.1 2.8,8.1 0,4.5 -2.5,8.1 -2.5,3.6 -7.1,5.7 -4.5,2 -10.4,2 z"
       style="font-size:100px;fill:#00669b"
       id="path136889" /><path
       d="m 249.3067,435.526 -21.5,-24.2 v 24.2 h -9.1 v -74 h 9.1 v 43.5 l 21.1,-24.3 h 12.7 l -25.8,27.3 25.9,27.5 z"
       style="font-size:100px;fill:#00669b"
       id="path136891" /><path
       d="m 320.20664,406.026 q 0,2.6 -0.3,5.5 h -43.8 q 0.5,8.1 5.5,12.7 5.1,4.5 12.3,4.5 5.9,0 9.8,-2.7 4,-2.8 5.6,-7.4 h 9.8 q -2.2,7.9 -8.8,12.9 -6.6,4.9 -16.4,4.9 -7.8,0 -14,-3.5 -6.1,-3.5 -9.6,-9.9 -3.5,-6.5 -3.5,-15 0,-8.5 3.4,-14.9 3.4,-6.4 9.5,-9.8 6.2,-3.5 14.2,-3.5 7.8,0 13.8,3.4 6,3.4 9.2,9.4 3.3,5.9 3.3,13.4 z m -9.4,-1.9 q 0,-5.2 -2.3,-8.9 -2.3,-3.8 -6.3,-5.7 -3.9,-2 -8.7,-2 -6.9,0 -11.8,4.4 -4.8,4.4 -5.5,12.2 z"
       style="font-size:100px;fill:#00669b"
       id="path136893" /><path
       d="m 343.30655,388.226 v 32.3 q 0,4 1.7,5.7 1.7,1.6 5.9,1.6 h 6.7 v 7.7 h -8.2 q -7.6,0 -11.4,-3.5 -3.8,-3.5 -3.8,-11.5 v -32.3 h -7.1 v -7.5 h 7.1 v -13.8 h 9.1 v 13.8 h 14.3 v 7.5 z"
       style="font-size:100px;fill:#00669b"
       id="path136895" /><path
       d="m 377.70639,390.926 q 2.8,-4.9 8.2,-8 5.4,-3.1 12.3,-3.1 7.4,0 13.3,3.5 5.9,3.5 9.3,9.9 3.4,6.3 3.4,14.7 0,8.3 -3.4,14.8 -3.4,6.5 -9.4,10.1 -5.9,3.6 -13.2,3.6 -7.1,0 -12.5,-3.1 -5.3,-3.1 -8,-7.9 v 10.1 h -9.1 v -74 h 9.1 z m 37.2,17 q 0,-6.2 -2.5,-10.8 -2.5,-4.6 -6.8,-7 -4.2,-2.4 -9.3,-2.4 -5,0 -9.3,2.5 -4.2,2.4 -6.8,7.1 -2.5,4.6 -2.5,10.7 0,6.2 2.5,10.9 2.6,4.6 6.8,7.1 4.3,2.4 9.3,2.4 5.1,0 9.3,-2.4 4.3,-2.5 6.8,-7.1 2.5,-4.7 2.5,-11 z"
       style="font-size:100px;fill:#00669b"
       id="path136897" /><path
       d="m 432.80624,407.926 q 0,-8.4 3.4,-14.7 3.4,-6.4 9.3,-9.9 6,-3.5 13.3,-3.5 7.2,0 12.5,3.1 5.3,3.1 7.9,7.8 v -10 h 9.2 v 54.8 h -9.2 v -10.2 q -2.7,4.8 -8.1,8 -5.3,3.1 -12.4,3.1 -7.3,0 -13.2,-3.6 -5.9,-3.6 -9.3,-10.1 -3.4,-6.5 -3.4,-14.8 z m 46.4,0.1 q 0,-6.2 -2.5,-10.8 -2.5,-4.6 -6.8,-7 -4.2,-2.5 -9.3,-2.5 -5.1,0 -9.3,2.4 -4.2,2.4 -6.7,7 -2.5,4.6 -2.5,10.8 0,6.3 2.5,11 2.5,4.6 6.7,7.1 4.2,2.4 9.3,2.4 5.1,0 9.3,-2.4 4.3,-2.5 6.8,-7.1 2.5,-4.7 2.5,-10.9 z"
       style="font-size:100px;fill:#00669b"
       id="path136899" /><path
       d="m 512.9061,361.526 v 74 h -9.1 v -74 z"
       style="font-size:100px;fill:#00669b"
       id="path136901" /><path
       d="m 537.50595,361.526 v 74 h -9.1 v -74 z"
       style="font-size:100px;fill:#00669b"
       id="path136903" /></g><path
     style="fill:#00669b;fill-opacity:1;stroke:none;stroke-width:1.29395"
     d="M 5.0993279,154.64059 V 11.222 H 291.93652 578.77372 v 143.41859 143.4186 H 291.93652 5.0993279 Z M 280.46303,239.68284 v -39.25388 l -9.24253,-2.16494 c -18.42907,-4.31679 -32.87767,-13.95276 -39.88146,-26.59752 -3.31667,-5.98798 -3.77882,-8.08097 -3.75947,-17.02591 0.0177,-8.20755 0.6042,-11.29833 3.0038,-15.83137 6.77962,-12.80719 22.62246,-23.54635 40.78858,-27.64878 l 9.09108,-2.05302 V 69.725949 30.344479 H 152.34242 24.221808 v 6.824512 6.824512 l 9.296157,0.785813 c 25.126872,2.123999 54.558451,10.44621 77.328275,21.865707 36.82493,18.468396 60.64636,46.037727 65.84394,76.203387 6.90994,40.10387 -21.06086,80.04608 -72.4567,103.46791 -18.038387,8.22036 -47.190417,16.15114 -65.988521,17.95212 -14.464231,1.38577 -14.023151,1.12413 -14.023151,8.3184 v 6.34987 H 152.34242 280.46303 Z m 279.18821,32.98118 v -6.27269 l -8.60512,-0.83924 C 488.02725,259.40593 438.32405,235.02414 413.94685,198.29834 386.41039,156.81291 401.44888,107.75592 451.66,75.274514 c 24.07185,-15.571998 61.55821,-27.887618 92.142,-30.271965 16.3832,-1.277252 15.84924,-0.997347 15.84924,-8.308198 V 30.344479 H 429.61838 299.58551 v 39.38147 39.381471 l 9.09109,2.05302 c 34.60165,7.81405 52.88087,34.49139 40.54638,59.17488 -6.81824,13.64451 -20.89151,23.34736 -40.55804,27.96283 l -9.07943,2.13081 v 39.25388 39.25387 h 130.03287 130.03286 z m -507.194756,-25.698 c 26.402555,-5.24847 52.881446,-16.87156 70.886476,-31.11611 9.5772,-7.57693 21.68589,-20.50421 20.40532,-21.78478 -0.34683,-0.34683 -3.14444,0.0365 -6.21688,0.85182 -3.63252,0.96395 -24.42404,1.68906 -59.447942,2.07326 l -53.86165,0.59084 v 26.77985 26.77985 l 7.967699,-0.8649 c 4.382235,-0.47569 13.502374,-1.96511 20.266977,-3.30983 z M 559.65124,224.23971 v -26.65069 l -57.04873,-0.57367 c -39.58336,-0.39806 -58.53558,-1.04523 -61.90535,-2.11394 -2.67114,-0.84714 -5.49831,-1.32635 -6.28261,-1.06492 -2.08458,0.69486 16.22524,19.49599 25.15682,25.83184 8.61454,6.11096 25.41374,14.80232 37.1607,19.22574 15.60591,5.87653 42.96755,11.58951 56.86371,11.87286 l 6.05546,0.12348 z M 280.46303,154.64059 c 0,-16.77098 -0.50206,-29.95855 -1.14054,-29.95855 -3.37333,0 -17.99097,5.47384 -22.0806,8.26848 -6.91388,4.7246 -11.75458,13.66774 -11.70821,21.63081 0.073,12.55171 8.29772,22.46778 22.62297,27.27546 13.4332,4.50832 12.30638,7.00031 12.30638,-27.2162 z m 31.52532,27.13417 c 16.11403,-5.27257 25.68991,-19.28831 22.13573,-32.39898 -3.03218,-11.18511 -11.28531,-18.51525 -25.52742,-22.67254 -3.80834,-1.11166 -7.3938,-2.0212 -7.9677,-2.0212 -0.5739,0 -1.04345,13.48135 -1.04345,29.95855 0,25.59089 0.27488,29.95856 1.88548,29.95856 1.03701,0 5.76983,-1.27097 10.51736,-2.82439 z M 91.787902,154.64059 V 127.23171 H 58.004855 24.221808 v 27.40888 27.40889 h 33.783047 33.783047 z m 49.113058,22.38892 c 10.71506,-5.27501 15.90337,-12.47998 15.90337,-22.08489 0,-7.30513 -1.2585,-10.11152 -7.42903,-16.56633 -5.72429,-5.98801 -15.76875,-9.87163 -27.94755,-10.80571 l -9.24254,-0.70889 v 27.7567 27.75669 l 10.11621,-0.58562 c 8.10066,-0.46894 11.80642,-1.41771 18.59954,-4.76195 z m 324.41271,-22.57598 v -27.59595 l -9.71287,0.82104 c -11.72414,0.99105 -23.15601,5.73574 -28.5089,11.83235 -16.10577,18.34345 1.18396,42.10376 30.89149,42.45247 l 7.33028,0.086 z m 94.33757,0.18706 v -27.40888 h -36.33271 -36.33272 v 27.40888 27.40889 h 36.33272 36.33271 z M 144.05601,115.87508 c 0,-2.69126 -11.95477,-15.51024 -20.60978,-22.099658 C 111.39897,84.603352 101.44223,78.85556 87.963406,73.292026 71.104448,66.333302 55.822957,62.612081 29.639843,59.089563 l -5.418035,-0.728911 v 27.423952 27.423956 l 53.86165,0.10259 c 49.542762,0.0944 60.126002,0.66749 65.653852,3.5554 0.17528,0.0916 0.3187,-0.35458 0.3187,-0.99147 z m 359.82133,-2.64661 55.7739,-0.0199 V 85.649893 58.091229 l -9.87995,0.877695 c -31.33042,2.783273 -62.31866,12.981549 -86.36987,28.424458 -8.43168,5.41385 -29.95855,25.635998 -29.95855,28.142788 0,0.63918 3.29863,0.38592 7.33029,-0.56281 5.56805,-1.31029 20.73848,-1.72976 63.10418,-1.74489 z"
     id="path57734" /></svg>
