<?xml version="1.0" encoding="UTF-8" standalone="no"?>
<svg
   version="1.1"
   x="0px"
   y="0px"
   viewBox="0 0 750 750"
   enable-background="new 0 0 100 100"
   xml:space="preserve"
   id="svg654"
   sodipodi:docname="basketball-court-edit.svg"
   inkscape:version="1.1 (c68e22c387, 2021-05-23)"
   xmlns:inkscape="http://www.inkscape.org/namespaces/inkscape"
   xmlns:sodipodi="http://sodipodi.sourceforge.net/DTD/sodipodi-0.dtd"
   xmlns="http://www.w3.org/2000/svg"
   xmlns:svg="http://www.w3.org/2000/svg"><defs
     id="defs658" /><sodipodi:namedview
     id="namedview656"
     pagecolor="#ffffff"
     bordercolor="#666666"
     borderopacity="1.0"
     inkscape:pageshadow="2"
     inkscape:pageopacity="0.0"
     inkscape:pagecheckerboard="0"
     showgrid="false"
     inkscape:zoom="1.5688342"
     inkscape:cx="443.32282"
     inkscape:cy="147.5618"
     inkscape:window-width="1920"
     inkscape:window-height="1017"
     inkscape:window-x="-8"
     inkscape:window-y="-8"
     inkscape:window-maximized="1"
     inkscape:current-layer="svg654" /><path
     style="fill:#bbb;"
     d="M 0.90144231,2.2209231 V 285.22092 H 566.90144 V 2.2209231 Z M 543.37848,170.38514 H 473.8567 v -53.32419 h 69.52178 z m -133.40054,-26.6621 c 0,-14.70339 15.9612,-26.66634 35.5731,-26.66634 h 7.12028 v 53.32419 h -7.12028 c -19.60624,0.004 -35.5731,-11.9587 -35.5731,-26.65785 z m 35.57876,-42.53209 c -8.24662,0 -16.06308,1.35326 -23.13808,3.73736 21.04954,-31.502413 66.82762,-54.121711 120.95986,-57.023362 v 53.286002 z m 0,85.06842 h 97.82178 v 53.28601 c -54.13224,-2.90165 -99.92164,-25.52095 -120.97118,-57.02761 7.075,2.3841 14.90278,3.7416 23.1494,3.7416 z M 271.9362,173.32072 c -6.88256,-1.37446 -13.25006,-3.97068 -18.4233,-7.84803 -16.00082,-11.9884 -16.00082,-31.50666 0,-43.49506 5.17324,-3.87735 11.5464,-6.46932 18.4233,-7.84803 z m 21.17406,-59.19112 c 6.89954,1.37871 13.25572,3.97068 18.42896,7.84803 16.00648,11.9884 16.00648,31.50666 0,43.49506 -5.17324,3.87735 -11.52942,6.46933 -18.42896,7.84803 z M 24.424402,186.25937 h 93.129638 c 8.24662,0 16.05742,-1.3575 23.13242,-3.73736 -20.44392,30.58187 -64.190058,52.8321 -116.262058,56.75611 z M 153.12148,143.72304 c 0,14.69491 -15.95554,26.6621 -35.5731,26.6621 h -7.1882 v -53.32419 h 7.1882 c 19.61756,0 35.5731,11.96294 35.5731,26.66209 z m -63.929698,26.6621 h -64.76738 v -53.32419 h 64.76738 z M 117.54838,101.19095 H 24.424402 V 48.172205 c 52.07766,3.919774 95.829458,26.161518 116.267718,56.751865 -7.075,-2.3841 -14.89712,-3.73312 -23.14374,-3.73312 z M 24.424402,255.25417 C 108.43578,249.66298 174.28988,201.7815 174.29554,143.72304 174.29554,85.656103 108.43578,37.774625 24.424402,32.191917 V 19.851419 H 271.9362 v 77.971244 c -12.58218,1.60355 -24.18518,6.032377 -33.394,12.930167 -24.25876,18.18198 -24.25876,47.76693 0,65.94891 9.20882,6.90203 20.81748,11.32662 33.394,12.9344 v 77.95853 H 24.424402 Z M 293.11026,267.59042 V 189.6319 c 12.5935,-1.60778 24.1965,-6.03238 33.394,-12.9344 24.26442,-18.18198 24.26442,-47.76694 0,-65.94892 -9.1975,-6.89778 -20.80616,-11.322367 -33.394,-12.934397 V 19.851419 h 250.26822 v 12.098694 c -86.25274,4.089461 -154.56894,52.645441 -154.56894,111.772927 0,59.14022 68.3162,107.69196 154.56894,111.77717 v 12.09021 z"
     id="path652" /></svg>
