<svg id="tenisIconSvg" xmlns="http://www.w3.org/2000/svg" width="39" height="32" viewBox="0 0 39 32" fill="#bbbbbb" style="fill: rgb(4, 87, 155);">
						<g transform="translate(-29 -780)">
							<g transform="translate(34.754 783.708)">
								<path d="M521.768,3516.5l2.778,2.431a.671.671,0,0,0,.885,0,.85.85,0,0,0,.106-.441.59.59,0,0,0-.212-.442l-2.778-2.443c-.231-.22-.567-.22-.885.116a.65.65,0,0,0,.106.779Zm-18.33,1.212h0l.123-.106.32-1,.9-.222c.106-.106.106-.106.106-.221l.212-.885,1.009-.336c.106,0,.106-.115.106-.115l.336-.99.885-.223c0-.115.123-.115.123-.221s0-.115-.123-.22l-4.336-2-.443-.557a1.129,1.129,0,0,0-1.115-.336,1.417,1.417,0,0,0-1.1.451,1.272,1.272,0,0,0-.443,1.105,1.89,1.89,0,0,0,.443,1.107l.548.45,2.229,4.212c.106.106.106.106.212.106Zm3.451-4.318h0l-.567.221-2-1.229a.2.2,0,0,0-.32,0v.115s0,.115.106.115l2,1.222-.23.768-.779.337-.654-.663c-.123-.116-.229-.116-.229,0-.108,0-.108.114-.108.114,0,.106,0,.106.108.212l.565.558-.23.778-.777.337-2.106-3.335.442-.443,1.556,1.557c.108.106.214.106.214,0,.123-.115.123-.22,0-.22l-1.539-1.557.424-.444.673.444c.123.1.229,0,.336-.108,0,0,0-.114-.108-.114l-.671-.443.106-.115Zm-6.105-.778h0a.755.755,0,0,1-.459-.779,1.288,1.288,0,0,1,.337-.883,1.121,1.121,0,0,1,1.681,0l.424.326-1.645,1.778Zm.548.663h.108l2,3.221-.106.548Zm3.451-17.083h0a4.459,4.459,0,0,0-3.239,1.673,5.379,5.379,0,0,0-1.326,3.875,8.367,8.367,0,0,0,3.008,5.767,8.63,8.63,0,0,0,5.555,2.221h.991a5.378,5.378,0,0,0,3.326-1.662,5.729,5.729,0,0,0,1.221-3.548v-.336a8.46,8.46,0,0,0-2.991-5.768,8.3,8.3,0,0,0-1.556-1.106,7.261,7.261,0,0,0-3.893-1.22,3.829,3.829,0,0,0-1.1.1Zm4.547,1.337h0l-1.221,1.442-2.441-2.107.336-.22a7.5,7.5,0,0,1,3.326.885Zm4.44,5.988h0l-.229.221-2.318-2.1,1.221-1.337a9.341,9.341,0,0,1,1.326,3.221Zm-.9,4.105h0l-1.1-1.115,1.77-2.1.336.221a4.85,4.85,0,0,1-1.009,3Zm-3.1,1.663h0l-.23-.222,1.894-2.1,1.114.991a5.016,5.016,0,0,1-2.778,1.336Zm-4.548-1h0l1.221-1.327,2.441,2.1-.23.222a6.8,6.8,0,0,1-3.432-1Zm-4.442-5.882h0l.214-.213,2.441,2.1-1.221,1.327a7.469,7.469,0,0,1-1.433-3.219Zm.993-4.1h0l1.114.993L501,3501.523l-.214-.22a4.678,4.678,0,0,1,.993-2.991Zm3.006-1.662h0l.318.22-1.874,2.107-1.221-1a4.3,4.3,0,0,1,2.778-1.328Zm-3.451,5.21h0l1.894-2.221,2.441,2.106-2,2.115Zm4.672.222h0l2.317,2.1-1.874,2.106L504,3504.187Zm2.653,2.441h0l2.443,1.99-1.894,2.221-2.441-2.106Zm4.548-.443h0l-1.876,2.1-2.335-2,1.893-2.1Zm-4.548-.22h0l-2.441-2.115,1.893-2.106,2.443,2Zm-2.778-2.443h0l-2.318-2.113,1.876-2.106,2.335,2.106Zm-2.318,5.769h0a10.958,10.958,0,0,1-1.114-1.222l1.327-1.442,2.335,2.1-1.221,1.548c-.442-.327-.885-.664-1.327-.989Zm7.431-8.431h0a5.241,5.241,0,0,1,1.115,1.1l-1.344,1.442-2.318-2,1.327-1.55c.336.328.885.665,1.22,1Zm-10.209-1.558h0a6.037,6.037,0,0,1,5.1-1.884,9.965,9.965,0,0,1,5.892,2.441,9.541,9.541,0,0,1,3.432,6.546,5.917,5.917,0,0,1-1.22,4.211l5.113,4.547h.124l.424-.557h.337l1.008.221h0v.116h.108l6.439,5.652v.337l-2,2.211h-.212l-6.459-5.759h-.106l-.443-1v-.222l.548-.558v-.106l-5.2-4.547c-2.564,2.654-7.448,2.327-10.9-.777a10.069,10.069,0,0,1-3.432-6.432,5.979,5.979,0,0,1,1.45-4.441Zm26.2,21.515h0l-1.556,1.778-6.1-5.325,1.539-1.885Zm-6.44-5.653h0l-.565-.114-1.116,1.22.125.559Zm-14.667-17.295h0a8.947,8.947,0,0,1,5.661,2.432,9.407,9.407,0,0,1,3.22,6.1,5.178,5.178,0,0,1-1.326,4.1c-2.335,2.663-6.989,2.335-10.333-.664a9.235,9.235,0,0,1-3.2-6.211,5.009,5.009,0,0,1,1.22-3.988,5.567,5.567,0,0,1,4.76-1.77Z" transform="translate(-499.32 -3495.276)" fill-rule="evenodd"></path>
							</g>
							<rect width="39" height="32" transform="translate(29 780)" fill="none"></rect>
						</g>
					</svg>