<?xml version="1.0" encoding="UTF-8" standalone="no"?>
<!-- Generator: Adobe Illustrator 25.0.1, SVG Export Plug-In . SVG Version: 6.00 Build 0)  -->

<svg
   version="1.1"
   x="0px"
   y="0px"
   width="750px"
   height="750px"
   viewBox="0 0 581 210"
   style="enable-background:new 0 0 750 750;"
   xml:space="preserve"
   id="svg722"
   sodipodi:docname="pickleball-court.svg"
   inkscape:version="1.1 (c68e22c387, 2021-05-23)"
   xmlns:inkscape="http://www.inkscape.org/namespaces/inkscape"
   xmlns:sodipodi="http://sodipodi.sourceforge.net/DTD/sodipodi-0.dtd"
   xmlns="http://www.w3.org/2000/svg"
   xmlns:svg="http://www.w3.org/2000/svg"><defs
   id="defs726" /><sodipodi:namedview
   id="namedview724"
   pagecolor="#ffffff"
   bordercolor="#666666"
   borderopacity="1.0"
   inkscape:pageshadow="2"
   inkscape:pageopacity="0.0"
   inkscape:pagecheckerboard="0"
   showgrid="false"
   inkscape:zoom="1.0786667"
   inkscape:cx="375"
   inkscape:cy="375"
   inkscape:window-width="1920"
   inkscape:window-height="1017"
   inkscape:window-x="-8"
   inkscape:window-y="-8"
   inkscape:window-maximized="1"
   inkscape:current-layer="svg722"
   inkscape:snap-grids="false"
   inkscape:snap-to-guides="false" />
<style
   type="text/css"
   id="style694">
	.st0{fill: transparent;}
	.st1{fill:#bbb;}
	.st2{fill:none;stroke:#bbb;stroke-width:2;stroke-miterlimit:10;}
	.st3{opacity:0.98;}
	.st4{fill:none;stroke:#bbb;stroke-width:2;}
	.st5{fill:none;stroke:#bbb;stroke-width:2;stroke-dasharray:2.9934,4.989;}
	.st6{fill:none;stroke:#bbb;stroke-width:2;stroke-dasharray:2.8029,4.6715;}
	.st7{fill:none;stroke:#bbb;stroke-width:2;stroke-dasharray:2.1584,3.5973;}
	.st8{fill:none;stroke:#bbb;stroke-width:2;stroke-dasharray:3.3925,5.6541;}
	.st9{fill:none;stroke:#bbb;stroke-width:2;stroke-dasharray:2.4401,4.0669;}
	.st10{fill:none;stroke:#bbb;stroke-width:2;stroke-dasharray:2.9371,4.8952;}
	.st11{fill:none;stroke:#bbb;stroke-width:2;stroke-dasharray:2.8716,4.786;}
	.st12{fill:none;stroke:#bbb;stroke-width:2;stroke-dasharray:3.6154,6.0257;}
	.st13{fill:none;stroke:#bbb;stroke-width:2;stroke-dasharray:3.1484,5.2473;}
	.st14{fill:none;stroke:#bbb;stroke-width:2;stroke-dasharray:3.1263,5.2105;}
	.st15{fill:none;stroke:#bbb;stroke-width:28;}
	.st16{fill:none;stroke:#bbb;stroke-width:28;stroke-dasharray:5.0648,7.0907;}
	.st17{fill:none;stroke:#bbb;stroke-width:28;stroke-dasharray:4.8664,6.8129;}
	.st18{fill:none;stroke:#bbb;stroke-width:28;stroke-dasharray:4.8854,6.8396;}
	.st19{fill:none;stroke:#bbb;stroke-width:28;stroke-dasharray:5.1101,7.1542;}
	.st20{fill:none;stroke:#bbb;stroke-width:28;stroke-dasharray:5.0403,7.0564;}
	.st21{fill:none;stroke:#bbb;stroke-width:28;stroke-dasharray:5.068,7.0952;}
	.st22{fill:none;stroke:#bbb;stroke-width:28;stroke-dasharray:5.0203,7.0285;}
	.st23{fill:none;stroke:#bbb;stroke-width:28;stroke-dasharray:4.8772,6.8281;}
	.st24{fill:none;stroke:#bbb;stroke-width:28;stroke-dasharray:4.9513,6.9319;}
	.st25{fill:none;stroke:#bbb;stroke-width:28;stroke-dasharray:4.9302,6.9023;}
	.st26{fill:none;stroke:#bbb;stroke-width:28;stroke-dasharray:5.0057,7.008;}
	.st27{fill:none;stroke:#bbb;stroke-width:28;stroke-dasharray:5.0056,7.0079;}
	.st28{fill:none;stroke:#bbb;stroke-width:28;stroke-dasharray:4.9669,6.9537;}
	.st29{fill:none;stroke:#bbb;stroke-width:28;stroke-dasharray:4.9895,6.9853;}
	.st30{fill:none;stroke:#bbb;stroke-width:28;stroke-dasharray:5.2476,7.3467;}
	.st31{fill:none;stroke:#bbb;stroke-width:28;stroke-dasharray:5.1508,7.2112;}
	.st32{fill:none;stroke:#bbb;stroke-width:5;}
	.st33{fill:none;stroke:#bbb;stroke-width:5;stroke-dasharray:3.9866,5.9799;}
	.st34{fill:none;stroke:#bbb;stroke-width:5;stroke-dasharray:4.2459,6.3689;}
	.st35{fill:none;stroke:#bbb;stroke-width:5;stroke-dasharray:4.0595,6.0892;}
	.st36{fill:none;stroke:#bbb;stroke-width:5;stroke-dasharray:4.0212,6.0318;}
	.st37{fill:none;stroke:#bbb;stroke-width:5;stroke-dasharray:4.2427,6.3641;}
	.st38{fill:none;stroke:#bbb;stroke-width:5;stroke-dasharray:3.8252,5.7377;}
	.st39{fill:none;stroke:#bbb;stroke-width:5;stroke-dasharray:3.6315,5.4472;}
	.st40{fill:none;stroke:#bbb;stroke-width:5;stroke-dasharray:3.747,5.6204;}
	.st41{fill:none;stroke:#bbb;stroke-width:5;stroke-dasharray:3.9997,5.9995;}
	.st42{fill:none;stroke:#bbb;stroke-width:5;stroke-dasharray:3.9971,5.9957;}
	.st43{fill:none;stroke:#bbb;stroke-width:28;stroke-dasharray:5.0777,7.1088;}
	.st44{fill:none;stroke:#bbb;stroke-width:28;stroke-dasharray:5.0631,7.0883;}
	.st45{fill:none;stroke:#bbb;stroke-width:28;stroke-dasharray:5.0853,7.1195;}
	.st46{fill:none;stroke:#bbb;stroke-width:28;stroke-dasharray:4.9589,6.9425;}
	.st47{fill:none;stroke:#bbb;stroke-width:28;stroke-dasharray:4.9407,6.917;}
	.st48{fill:none;stroke:#bbb;stroke-width:28;stroke-dasharray:4.5486,6.368;}
	.st49{fill:none;stroke:#bbb;stroke-width:28;stroke-dasharray:4.8992,6.8588;}
	.st50{fill:none;stroke:#bbb;stroke-width:28;stroke-dasharray:5.1845,7.2583;}
	.st51{fill:none;stroke:#bbb;stroke-width:28;stroke-dasharray:5.1646,7.2305;}
	.st52{fill:none;stroke:#bbb;stroke-width:28;stroke-dasharray:4.9924,6.9893;}
	.st53{fill:none;stroke:#bbb;stroke-width:28;stroke-dasharray:4.9908,6.9871;}
	.st54{fill:none;stroke:#bbb;stroke-width:28;stroke-dasharray:5.1217,7.1704;}
	.st55{fill:none;stroke:#bbb;stroke-width:28;stroke-dasharray:4.9194,6.8872;}
	.st56{fill:none;stroke:#bbb;stroke-width:28;stroke-dasharray:5.1223,7.1712;}
	.st57{fill:none;stroke:#bbb;stroke-width:28;stroke-dasharray:4.9531,6.9344;}
	.st58{fill:none;stroke:#bbb;stroke-width:5;stroke-dasharray:3.9887,5.9831;}
	.st59{fill:none;stroke:#bbb;stroke-width:5;stroke-dasharray:3.9847,5.9771;}
	.st60{fill:none;stroke:#bbb;stroke-width:28;stroke-dasharray:4.9707,6.959;}
	.st61{fill:none;stroke:#bbb;stroke-width:3;}
	.st62{fill:none;stroke:#bbb;stroke-width:3;stroke-dasharray:4.9655,6.9517;}
	.st63{fill:none;stroke:#bbb;stroke-width:28;stroke-dasharray:4.9964,6.995;}
	.st64{fill:none;stroke:#bbb;stroke-width:28;stroke-dasharray:5.0407,7.057;}
	.st65{fill:none;stroke:#bbb;stroke-width:28;stroke-dasharray:4.9994,6.9992;}
	.st66{fill:none;stroke:#bbb;stroke-width:28;stroke-dasharray:4.9219,6.8906;}
	.st67{fill:none;stroke:#bbb;stroke-width:28;stroke-dasharray:4.9728,6.962;}
	.st68{fill:none;stroke:#bbb;stroke-width:28;stroke-dasharray:5.0385,7.0539;}
	.st69{fill:none;stroke:#bbb;stroke-width:28;stroke-dasharray:4.9743,6.964;}
	.st70{fill:none;stroke:#bbb;stroke-width:28;stroke-dasharray:4.8538,6.7954;}
	.st71{fill:none;stroke:#bbb;stroke-width:28;stroke-dasharray:5.0072,7.0101;}
	.st72{fill:none;stroke:#bbb;stroke-width:28;stroke-dasharray:5.0393,7.055;}
	.st73{fill:none;stroke:#bbb;stroke-width:28;stroke-dasharray:4.9229,6.8921;}
	.st74{fill:none;stroke:#bbb;stroke-width:28;stroke-dasharray:4.845,6.7831;}
	.st75{fill:none;stroke:#bbb;stroke-width:28;stroke-dasharray:5.0066,7.0092;}
	.st76{fill:none;stroke:#bbb;stroke-miterlimit:10;}
	.st77{fill:none;stroke:#bbb;stroke-width:1.75;stroke-miterlimit:10;}
	.st78{fill:none;stroke:#bbb;stroke-width:28;stroke-miterlimit:10;}
	.st79{fill:none;stroke:#bbb;stroke-width:1.5;stroke-miterlimit:10;}
	.st80{fill:none;stroke:#bbb;stroke-width:5;stroke-miterlimit:10;}
	.st81{fill:none;stroke:#bbb;stroke-width:3.5;stroke-miterlimit:10;}
	.st82{fill:none;stroke:#bbb;stroke-width:3;stroke-miterlimit:10;}
	.st83{fill:none;stroke:#bbb;stroke-width:2.65;stroke-miterlimit:10;}
	.st84{fill:none;stroke:#bbb;stroke-width:2.45;stroke-miterlimit:10;}
	.st85{fill:none;stroke:#bbb;stroke-width:2.5;stroke-miterlimit:10;}
	.st86{fill:none;stroke:#bbb;stroke-width:2.2;stroke-miterlimit:10;}
	.st87{fill:none;stroke:#bbb;stroke-width:2.35;stroke-miterlimit:10;}
	.st88{fill:none;stroke:#bbb;stroke-width:20;stroke-linecap:round;stroke-linejoin:round;stroke-miterlimit:10;}
</style>
<g
   id="_x32_D_x24_AG-SPORTS"
   transform="matrix(0.98099843,0,0,1.0085118,-80.362651,-324.54197)">
	<g
   id="POLYLINE_797_">
		<line
   class="st78"
   x1="284.95999"
   y1="503.63"
   x2="284.95999"
   y2="246.37"
   id="line696"
   style="stroke-width:20;stroke-miterlimit:10;stroke-dasharray:none" />
	</g>
	<g
   id="POLYLINE_799_">
		<line
   class="st78"
   x1="465.04001"
   y1="375"
   x2="657.97998"
   y2="375"
   id="line699"
   style="stroke-width:20;stroke-miterlimit:10;stroke-dasharray:none" />
	</g>
	<g
   id="POLYLINE_800_">
		<line
   class="st78"
   x1="465.04001"
   y1="503.63"
   x2="465.04001"
   y2="246.37"
   id="line702"
   style="stroke-width:20;stroke-miterlimit:10;stroke-dasharray:none" />
	</g>
	<g
   id="POLYLINE_801_">
		<line
   class="st78"
   x1="284.95999"
   y1="375"
   x2="92.019997"
   y2="375"
   id="line705"
   style="stroke-width:20;stroke-miterlimit:10;stroke-dasharray:none" />
	</g>
	<g
   id="POLYLINE_807_">
		<polyline
   class="st88"
   points="375.25,229.23 375.25,375 375.25,520.77   "
   id="polyline708"
   style="stroke-width:15;stroke-miterlimit:10;stroke-dasharray:none"
   transform="translate(0,3.9681538)" />
	</g>
	<g
   id="POLYLINE_808_">
		<polyline
   class="st78"
   points="374.75,503.63 92.02,503.63 92.02,246.37 374.75,246.37   "
   id="polyline711"
   style="fill:none;fill-opacity:1;stroke:#bbbbbb;stroke-width:20;stroke-miterlimit:10;stroke-dasharray:none;stroke-opacity:1"
   transform="matrix(0.9994907,0,0,1.0295278,0.19086031,-7.1307907)" />
	</g>
	<g
   id="POLYLINE_809_">
		<polyline
   class="st78"
   points="375.25,246.37 657.98,246.37 657.98,503.63 375.25,503.63   "
   id="polyline714"
   style="stroke-width:20;stroke-miterlimit:10;stroke-dasharray:none"
   transform="matrix(0.99949104,0,0,1.0295325,0.19098584,-7.1318065)" />
	</g>
</g>

<g
   aria-label="Pickleball"
   id="text4705"
   style="font-size:100.15px;line-height:1.25;font-family:Poppins;-inkscape-font-specification:Poppins;fill:#bbbbbb;stroke-width:2.17043"
   transform="translate(1.5586217,-132.54349)"><path
     d="m 122.7109,411.40721 q 0,8.71305 -6.009,14.52175 -5.90885,5.70855 -18.127147,5.70855 h -13.4201 v 29.14365 h -9.11365 v -69.80455 h 22.53375 q 11.817697,0 17.926847,5.70855 6.2093,5.70855 6.2093,14.72205 z m -24.136147,12.71905 q 7.611397,0 11.216797,-3.30495 3.6054,-3.30495 3.6054,-9.4141 0,-12.91935 -14.822197,-12.91935 h -13.4201 v 25.6384 z"
     id="path27091" /><path
     d="m 138.73476,396.98561 q -2.6039,0 -4.4066,-1.8027 -1.8027,-1.8027 -1.8027,-4.4066 0,-2.6039 1.8027,-4.4066 1.8027,-1.8027 4.4066,-1.8027 2.50375,0 4.2063,1.8027 1.8027,1.8027 1.8027,4.4066 0,2.6039 -1.8027,4.4066 -1.70255,1.8027 -4.2063,1.8027 z m 4.4066,8.91335 v 54.8822 h -9.11365 v -54.8822 z"
     id="path27093" /><path
     d="m 155.25935,433.23991 q 0,-8.51275 3.4051,-14.8222 3.4051,-6.4096 9.4141,-9.91485 6.10915,-3.50525 13.92085,-3.50525 10.11515,0 16.6249,4.90735 6.6099,4.90735 8.71305,13.6204 h -9.8147 q -1.4021,-5.0075 -5.50825,-7.91185 -4.006,-2.90435 -10.015,-2.90435 -7.8117,0 -12.6189,5.4081 -4.8072,5.30795 -4.8072,15.12265 0,9.91485 4.8072,15.32295 4.8072,5.4081 12.6189,5.4081 6.009,0 10.015,-2.8042 4.006,-2.8042 5.50825,-8.012 h 9.8147 q -2.2033,8.4126 -8.8132,13.52025 -6.6099,5.0075 -16.52475,5.0075 -7.8117,0 -13.92085,-3.50525 -6.009,-3.50525 -9.4141,-9.91485 -3.4051,-6.4096 -3.4051,-15.0225 z"
     id="path27095" /><path
     d="m 250.10124,460.78116 -21.53225,-24.2363 v 24.2363 h -9.11365 v -74.111 h 9.11365 v 43.56525 l 21.13165,-24.33645 h 12.71905 l -25.8387,27.34095 25.93885,27.54125 z"
     id="path27097" /><path
     d="m 280.14618,386.67016 v 74.111 h -9.11365 v -74.111 z"
     id="path27099" /><path
     d="m 345.74427,431.23691 q 0,2.6039 -0.30045,5.50825 h -43.8657 q 0.50075,8.11215 5.50825,12.71905 5.10765,4.50675 12.31845,4.50675 5.90885,0 9.8147,-2.70405 4.006,-2.8042 5.6084,-7.4111 h 9.8147 q -2.2033,7.91185 -8.8132,12.91935 -6.6099,4.90735 -16.4246,4.90735 -7.8117,0 -14.021,-3.50525 -6.10915,-3.50525 -9.6144,-9.91485 -3.50525,-6.50975 -3.50525,-15.0225 0,-8.51275 3.4051,-14.92235 3.4051,-6.4096 9.51425,-9.8147 6.2093,-3.50525 14.2213,-3.50525 7.8117,0 13.8207,3.4051 6.009,3.4051 9.2138,9.4141 3.30495,5.90885 3.30495,13.4201 z m -9.4141,-1.90285 q 0,-5.2078 -2.30345,-8.91335 -2.30345,-3.8057 -6.30945,-5.70855 -3.90585,-2.003 -8.71305,-2.003 -6.91035,0 -11.8177,4.4066 -4.8072,4.4066 -5.50825,12.2183 z"
     id="path27101" /><path
     d="m 366.87581,416.11426 q 2.8042,-4.90735 8.2123,-8.012 5.4081,-3.10465 12.31845,-3.10465 7.4111,0 13.31995,3.50525 5.90885,3.50525 9.31395,9.91485 3.4051,6.30945 3.4051,14.72205 0,8.31245 -3.4051,14.8222 -3.4051,6.50975 -9.4141,10.11515 -5.90885,3.6054 -13.2198,3.6054 -7.11065,0 -12.51875,-3.10465 -5.30795,-3.10465 -8.012,-7.91185 v 10.11515 h -9.11365 v -74.111 h 9.11365 z m 37.2558,17.0255 q 0,-6.2093 -2.50375,-10.8162 -2.50375,-4.6069 -6.8102,-7.0105 -4.2063,-2.4036 -9.31395,-2.4036 -5.0075,0 -9.31395,2.50375 -4.2063,2.4036 -6.8102,7.11065 -2.50375,4.6069 -2.50375,10.71605 0,6.2093 2.50375,10.91635 2.6039,4.6069 6.8102,7.11065 4.30645,2.4036 9.31395,2.4036 5.10765,0 9.31395,-2.4036 4.30645,-2.50375 6.8102,-7.11065 2.50375,-4.70705 2.50375,-11.0165 z"
     id="path27103" /><path
     d="m 422.05833,433.13976 q 0,-8.4126 3.4051,-14.72205 3.4051,-6.4096 9.31395,-9.91485 6.009,-3.50525 13.31995,-3.50525 7.2108,0 12.51875,3.10465 5.30795,3.10465 7.91185,7.8117 v -10.015 h 9.2138 v 54.8822 h -9.2138 v -10.2153 q -2.70405,4.8072 -8.11215,8.012 -5.30795,3.10465 -12.4186,3.10465 -7.31095,0 -13.2198,-3.6054 -5.90885,-3.6054 -9.31395,-10.11515 -3.4051,-6.50975 -3.4051,-14.8222 z m 46.4696,0.10015 q 0,-6.2093 -2.50375,-10.8162 -2.50375,-4.6069 -6.8102,-7.0105 -4.2063,-2.50375 -9.31395,-2.50375 -5.10765,0 -9.31395,2.4036 -4.2063,2.4036 -6.71005,7.0105 -2.50375,4.6069 -2.50375,10.8162 0,6.30945 2.50375,11.0165 2.50375,4.6069 6.71005,7.11065 4.2063,2.4036 9.31395,2.4036 5.10765,0 9.31395,-2.4036 4.30645,-2.50375 6.8102,-7.11065 2.50375,-4.70705 2.50375,-10.91635 z"
     id="path27105" /><path
     d="m 502.27837,386.67016 v 74.111 h -9.11365 v -74.111 z"
     id="path27107" /><path
     d="m 526.91509,386.67016 v 74.111 h -9.11365 v -74.111 z"
     id="path27109" /></g></svg>
