<?xml version="1.0" encoding="UTF-8" standalone="no"?>
<!-- Generator: Adobe Illustrator 25.0.1, SVG Export Plug-In . SVG Version: 6.00 Build 0)  -->

<svg
   version="1.1"
   x="0px"
   y="0px"
   width="750px"
   height="750px"
   viewBox="0 0 750 750"
   style="enable-background:new 0 0 750 750;"
   xml:space="preserve"
   id="svg722"
   sodipodi:docname="two-pickleball-courts-full.svg"
   inkscape:version="1.1 (c68e22c387, 2021-05-23)"
   xmlns:inkscape="http://www.inkscape.org/namespaces/inkscape"
   xmlns:sodipodi="http://sodipodi.sourceforge.net/DTD/sodipodi-0.dtd"
   xmlns="http://www.w3.org/2000/svg"
   xmlns:svg="http://www.w3.org/2000/svg"><defs
   id="defs726" /><sodipodi:namedview
   id="namedview724"
   pagecolor="#ffffff"
   bordercolor="#666666"
   borderopacity="1.0"
   inkscape:pageshadow="2"
   inkscape:pageopacity="0.0"
   inkscape:pagecheckerboard="0"
   showgrid="false"
   inkscape:zoom="1.4057858"
   inkscape:cx="341.80172"
   inkscape:cy="247.19271"
   inkscape:window-width="1920"
   inkscape:window-height="1017"
   inkscape:window-x="-8"
   inkscape:window-y="-8"
   inkscape:window-maximized="1"
   inkscape:current-layer="svg722"
   inkscape:snap-grids="false"
   inkscape:snap-to-guides="false" />
<style
   type="text/css"
   id="style694">
	.st0{fill: transparent;}
	.st1{fill:#00669B;}
	.st2{fill:none;stroke:#00669B;stroke-width:2;stroke-miterlimit:10;}
	.st3{opacity:0.98;}
	.st4{fill:none;stroke:#00669B;stroke-width:2;}
	.st5{fill:none;stroke:#00669B;stroke-width:2;stroke-dasharray:2.9934,4.989;}
	.st6{fill:none;stroke:#00669B;stroke-width:2;stroke-dasharray:2.8029,4.6715;}
	.st7{fill:none;stroke:#00669B;stroke-width:2;stroke-dasharray:2.1584,3.5973;}
	.st8{fill:none;stroke:#00669B;stroke-width:2;stroke-dasharray:3.3925,5.6541;}
	.st9{fill:none;stroke:#00669B;stroke-width:2;stroke-dasharray:2.4401,4.0669;}
	.st10{fill:none;stroke:#00669B;stroke-width:2;stroke-dasharray:2.9371,4.8952;}
	.st11{fill:none;stroke:#00669B;stroke-width:2;stroke-dasharray:2.8716,4.786;}
	.st12{fill:none;stroke:#00669B;stroke-width:2;stroke-dasharray:3.6154,6.0257;}
	.st13{fill:none;stroke:#00669B;stroke-width:2;stroke-dasharray:3.1484,5.2473;}
	.st14{fill:none;stroke:#00669B;stroke-width:2;stroke-dasharray:3.1263,5.2105;}
	.st15{fill:none;stroke:#00669B;stroke-width:28;}
	.st16{fill:none;stroke:#00669B;stroke-width:28;stroke-dasharray:5.0648,7.0907;}
	.st17{fill:none;stroke:#00669B;stroke-width:28;stroke-dasharray:4.8664,6.8129;}
	.st18{fill:none;stroke:#00669B;stroke-width:28;stroke-dasharray:4.8854,6.8396;}
	.st19{fill:none;stroke:#00669B;stroke-width:28;stroke-dasharray:5.1101,7.1542;}
	.st20{fill:none;stroke:#00669B;stroke-width:28;stroke-dasharray:5.0403,7.0564;}
	.st21{fill:none;stroke:#00669B;stroke-width:28;stroke-dasharray:5.068,7.0952;}
	.st22{fill:none;stroke:#00669B;stroke-width:28;stroke-dasharray:5.0203,7.0285;}
	.st23{fill:none;stroke:#00669B;stroke-width:28;stroke-dasharray:4.8772,6.8281;}
	.st24{fill:none;stroke:#00669B;stroke-width:28;stroke-dasharray:4.9513,6.9319;}
	.st25{fill:none;stroke:#00669B;stroke-width:28;stroke-dasharray:4.9302,6.9023;}
	.st26{fill:none;stroke:#00669B;stroke-width:28;stroke-dasharray:5.0057,7.008;}
	.st27{fill:none;stroke:#00669B;stroke-width:28;stroke-dasharray:5.0056,7.0079;}
	.st28{fill:none;stroke:#00669B;stroke-width:28;stroke-dasharray:4.9669,6.9537;}
	.st29{fill:none;stroke:#00669B;stroke-width:28;stroke-dasharray:4.9895,6.9853;}
	.st30{fill:none;stroke:#00669B;stroke-width:28;stroke-dasharray:5.2476,7.3467;}
	.st31{fill:none;stroke:#00669B;stroke-width:28;stroke-dasharray:5.1508,7.2112;}
	.st32{fill:none;stroke:#00669B;stroke-width:5;}
	.st33{fill:none;stroke:#00669B;stroke-width:5;stroke-dasharray:3.9866,5.9799;}
	.st34{fill:none;stroke:#00669B;stroke-width:5;stroke-dasharray:4.2459,6.3689;}
	.st35{fill:none;stroke:#00669B;stroke-width:5;stroke-dasharray:4.0595,6.0892;}
	.st36{fill:none;stroke:#00669B;stroke-width:5;stroke-dasharray:4.0212,6.0318;}
	.st37{fill:none;stroke:#00669B;stroke-width:5;stroke-dasharray:4.2427,6.3641;}
	.st38{fill:none;stroke:#00669B;stroke-width:5;stroke-dasharray:3.8252,5.7377;}
	.st39{fill:none;stroke:#00669B;stroke-width:5;stroke-dasharray:3.6315,5.4472;}
	.st40{fill:none;stroke:#00669B;stroke-width:5;stroke-dasharray:3.747,5.6204;}
	.st41{fill:none;stroke:#00669B;stroke-width:5;stroke-dasharray:3.9997,5.9995;}
	.st42{fill:none;stroke:#00669B;stroke-width:5;stroke-dasharray:3.9971,5.9957;}
	.st43{fill:none;stroke:#00669B;stroke-width:28;stroke-dasharray:5.0777,7.1088;}
	.st44{fill:none;stroke:#00669B;stroke-width:28;stroke-dasharray:5.0631,7.0883;}
	.st45{fill:none;stroke:#00669B;stroke-width:28;stroke-dasharray:5.0853,7.1195;}
	.st46{fill:none;stroke:#00669B;stroke-width:28;stroke-dasharray:4.9589,6.9425;}
	.st47{fill:none;stroke:#00669B;stroke-width:28;stroke-dasharray:4.9407,6.917;}
	.st48{fill:none;stroke:#00669B;stroke-width:28;stroke-dasharray:4.5486,6.368;}
	.st49{fill:none;stroke:#00669B;stroke-width:28;stroke-dasharray:4.8992,6.8588;}
	.st50{fill:none;stroke:#00669B;stroke-width:28;stroke-dasharray:5.1845,7.2583;}
	.st51{fill:none;stroke:#00669B;stroke-width:28;stroke-dasharray:5.1646,7.2305;}
	.st52{fill:none;stroke:#00669B;stroke-width:28;stroke-dasharray:4.9924,6.9893;}
	.st53{fill:none;stroke:#00669B;stroke-width:28;stroke-dasharray:4.9908,6.9871;}
	.st54{fill:none;stroke:#00669B;stroke-width:28;stroke-dasharray:5.1217,7.1704;}
	.st55{fill:none;stroke:#00669B;stroke-width:28;stroke-dasharray:4.9194,6.8872;}
	.st56{fill:none;stroke:#00669B;stroke-width:28;stroke-dasharray:5.1223,7.1712;}
	.st57{fill:none;stroke:#00669B;stroke-width:28;stroke-dasharray:4.9531,6.9344;}
	.st58{fill:none;stroke:#00669B;stroke-width:5;stroke-dasharray:3.9887,5.9831;}
	.st59{fill:none;stroke:#00669B;stroke-width:5;stroke-dasharray:3.9847,5.9771;}
	.st60{fill:none;stroke:#00669B;stroke-width:28;stroke-dasharray:4.9707,6.959;}
	.st61{fill:none;stroke:#00669B;stroke-width:3;}
	.st62{fill:none;stroke:#00669B;stroke-width:3;stroke-dasharray:4.9655,6.9517;}
	.st63{fill:none;stroke:#00669B;stroke-width:28;stroke-dasharray:4.9964,6.995;}
	.st64{fill:none;stroke:#00669B;stroke-width:28;stroke-dasharray:5.0407,7.057;}
	.st65{fill:none;stroke:#00669B;stroke-width:28;stroke-dasharray:4.9994,6.9992;}
	.st66{fill:none;stroke:#00669B;stroke-width:28;stroke-dasharray:4.9219,6.8906;}
	.st67{fill:none;stroke:#00669B;stroke-width:28;stroke-dasharray:4.9728,6.962;}
	.st68{fill:none;stroke:#00669B;stroke-width:28;stroke-dasharray:5.0385,7.0539;}
	.st69{fill:none;stroke:#00669B;stroke-width:28;stroke-dasharray:4.9743,6.964;}
	.st70{fill:none;stroke:#00669B;stroke-width:28;stroke-dasharray:4.8538,6.7954;}
	.st71{fill:none;stroke:#00669B;stroke-width:28;stroke-dasharray:5.0072,7.0101;}
	.st72{fill:none;stroke:#00669B;stroke-width:28;stroke-dasharray:5.0393,7.055;}
	.st73{fill:none;stroke:#00669B;stroke-width:28;stroke-dasharray:4.9229,6.8921;}
	.st74{fill:none;stroke:#00669B;stroke-width:28;stroke-dasharray:4.845,6.7831;}
	.st75{fill:none;stroke:#00669B;stroke-width:28;stroke-dasharray:5.0066,7.0092;}
	.st76{fill:none;stroke:#00669B;stroke-miterlimit:10;}
	.st77{fill:none;stroke:#00669B;stroke-width:1.75;stroke-miterlimit:10;}
	.st78{fill:none;stroke:#00669B;stroke-width:28;stroke-miterlimit:10;}
	.st79{fill:none;stroke:#00669B;stroke-width:1.5;stroke-miterlimit:10;}
	.st80{fill:none;stroke:#00669B;stroke-width:5;stroke-miterlimit:10;}
	.st81{fill:none;stroke:#00669B;stroke-width:3.5;stroke-miterlimit:10;}
	.st82{fill:none;stroke:#00669B;stroke-width:3;stroke-miterlimit:10;}
	.st83{fill:none;stroke:#00669B;stroke-width:2.65;stroke-miterlimit:10;}
	.st84{fill:none;stroke:#00669B;stroke-width:2.45;stroke-miterlimit:10;}
	.st85{fill:none;stroke:#00669B;stroke-width:2.5;stroke-miterlimit:10;}
	.st86{fill:none;stroke:#00669B;stroke-width:2.2;stroke-miterlimit:10;}
	.st87{fill:none;stroke:#00669B;stroke-width:2.35;stroke-miterlimit:10;}
	.st88{fill:none;stroke:#00669B;stroke-width:20;stroke-linecap:round;stroke-linejoin:round;stroke-miterlimit:10;}
</style>
<g
   id="_x32_D_x24_AG-SPORTS"
   transform="matrix(0.55277444,0,0,0.5682777,-44.063805,-0.477133)">
	<g
   id="POLYLINE_797_">
		<line
   class="st78"
   x1="284.95999"
   y1="503.63"
   x2="284.95999"
   y2="246.37"
   id="line696"
   style="stroke-width:20;stroke-miterlimit:10;stroke-dasharray:none" />
	</g>
	<g
   id="POLYLINE_799_">
		<line
   class="st78"
   x1="465.04001"
   y1="375"
   x2="657.97998"
   y2="375"
   id="line699"
   style="stroke-width:20;stroke-miterlimit:10;stroke-dasharray:none" />
	</g>
	<g
   id="POLYLINE_800_">
		<line
   class="st78"
   x1="465.04001"
   y1="503.63"
   x2="465.04001"
   y2="246.37"
   id="line702"
   style="stroke-width:20;stroke-miterlimit:10;stroke-dasharray:none" />
	</g>
	<g
   id="POLYLINE_801_">
		<line
   class="st78"
   x1="284.95999"
   y1="375"
   x2="92.019997"
   y2="375"
   id="line705"
   style="stroke-width:20;stroke-miterlimit:10;stroke-dasharray:none" />
	</g>
	<g
   id="POLYLINE_807_">
		<polyline
   class="st88"
   points="375.25,229.23 375.25,375 375.25,520.77   "
   id="polyline708"
   style="stroke-width:15;stroke-miterlimit:10;stroke-dasharray:none"
   transform="translate(0,3.9681538)" />
	</g>
	<g
   id="POLYLINE_808_">
		<polyline
   class="st78"
   points="374.75,503.63 92.02,503.63 92.02,246.37 374.75,246.37   "
   id="polyline711"
   style="fill:none;fill-opacity:1;stroke-width:20;stroke-miterlimit:10;stroke-dasharray:none;stroke-opacity:1"
   transform="matrix(0.9994907,0,0,1.0295278,0.19086031,-7.1307907)" />
	</g>
	<g
   id="POLYLINE_809_">
		<polyline
   class="st78"
   points="375.25,246.37 657.98,246.37 657.98,503.63 375.25,503.63   "
   id="polyline714"
   style="stroke-width:20;stroke-miterlimit:10;stroke-dasharray:none"
   transform="matrix(0.99949104,0,0,1.0295325,0.19098584,-7.1318065)" />
	</g>
</g><g
   id="_x32_D_x24_AG-SPORTS-9"
   transform="matrix(0.55277385,0,0,0.56828236,379.75721,-0.4782671)"><g
     id="POLYLINE_797_-3"><line
       class="st78"
       x1="284.95999"
       y1="503.63"
       x2="284.95999"
       y2="246.37"
       id="line696-6"
       style="stroke-width:20;stroke-miterlimit:10;stroke-dasharray:none" /></g><g
     id="POLYLINE_799_-2"><line
       class="st78"
       x1="465.04001"
       y1="375"
       x2="657.97998"
       y2="375"
       id="line699-0"
       style="stroke-width:20;stroke-miterlimit:10;stroke-dasharray:none" /></g><g
     id="POLYLINE_800_-8"><line
       class="st78"
       x1="465.04001"
       y1="503.63"
       x2="465.04001"
       y2="246.37"
       id="line702-2"
       style="stroke-width:20;stroke-miterlimit:10;stroke-dasharray:none" /></g><g
     id="POLYLINE_801_-0"><line
       class="st78"
       x1="284.95999"
       y1="375"
       x2="92.019997"
       y2="375"
       id="line705-4"
       style="stroke-width:20;stroke-miterlimit:10;stroke-dasharray:none" /></g><g
     id="POLYLINE_807_-3"><polyline
       class="st88"
       points="375.25,229.23 375.25,375 375.25,520.77   "
       id="polyline708-4"
       style="stroke-width:15;stroke-miterlimit:10;stroke-dasharray:none"
       transform="translate(0,3.9681538)" /></g><g
     id="POLYLINE_808_-5"><polyline
       class="st78"
       points="374.75,503.63 92.02,503.63 92.02,246.37 374.75,246.37   "
       id="polyline711-5"
       style="fill:none;fill-opacity:1;stroke:#00669b;stroke-width:20;stroke-miterlimit:10;stroke-dasharray:none;stroke-opacity:1"
       transform="matrix(0.9994907,0,0,1.0295278,0.19086031,-7.1307907)" /></g><g
     id="POLYLINE_809_-0"><polyline
       class="st78"
       points="375.25,246.37 657.98,246.37 657.98,503.63 375.25,503.63   "
       id="polyline714-2"
       style="stroke-width:20;stroke-miterlimit:10;stroke-dasharray:none"
       transform="matrix(0.99949104,0,0,1.0295325,0.19098584,-7.1318065)" /></g></g>

<g
   aria-label="Pickleball"
   id="text4705"
   style="font-size:100px;line-height:1.25;font-family:Poppins;-inkscape-font-specification:Poppins;fill:#bbbbbb;stroke-width:2.17043"
   transform="matrix(1.2908786,0,0,1.2857143,-16.241137,-73.876389)"><path
     d="m 124.64075,383.36708 q 0,8.7 -6,14.5 -5.9,5.7 -18.1,5.7 H 87.140752 v 29.1 h -9.1 v -69.7 h 22.499998 q 11.8,0 17.9,5.7 6.2,5.7 6.2,14.7 z m -24.1,12.7 q 7.6,0 11.2,-3.3 3.6,-3.3 3.6,-9.4 0,-12.9 -14.8,-12.9 H 87.140752 v 25.6 z"
     style="fill:#00669b"
     id="path133814" /><path
     d="m 140.64061,368.96708 q -2.6,0 -4.4,-1.8 -1.8,-1.8 -1.8,-4.4 0,-2.6 1.8,-4.4 1.8,-1.8 4.4,-1.8 2.5,0 4.2,1.8 1.8,1.8 1.8,4.4 0,2.6 -1.8,4.4 -1.7,1.8 -4.2,1.8 z m 4.4,8.9 v 54.8 h -9.1 v -54.8 z"
     style="fill:#00669b"
     id="path133816" /><path
     d="m 157.14045,405.16708 q 0,-8.5 3.4,-14.8 3.4,-6.4 9.4,-9.9 6.1,-3.5 13.9,-3.5 10.1,0 16.6,4.9 6.6,4.9 8.7,13.6 h -9.8 q -1.4,-5 -5.5,-7.9 -4,-2.9 -10,-2.9 -7.8,0 -12.6,5.4 -4.8,5.3 -4.8,15.1 0,9.9 4.8,15.3 4.8,5.4 12.6,5.4 6,0 10,-2.8 4,-2.8 5.5,-8 h 9.8 q -2.2,8.4 -8.8,13.5 -6.6,5 -16.5,5 -7.8,0 -13.9,-3.5 -6,-3.5 -9.4,-9.9 -3.4,-6.4 -3.4,-15 z"
     style="fill:#00669b"
     id="path133818" /><path
     d="m 251.84029,432.66708 -21.5,-24.2 v 24.2 h -9.1 v -74 h 9.1 v 43.5 l 21.1,-24.3 h 12.7 l -25.8,27.3 25.9,27.5 z"
     style="fill:#00669b"
     id="path133820" /><path
     d="m 281.84023,358.66708 v 74 h -9.1 v -74 z"
     style="fill:#00669b"
     id="path133822" /><path
     d="m 347.34007,403.16708 q 0,2.6 -0.3,5.5 h -43.8 q 0.5,8.1 5.5,12.7 5.1,4.5 12.3,4.5 5.9,0 9.8,-2.7 4,-2.8 5.6,-7.4 h 9.8 q -2.2,7.9 -8.8,12.9 -6.6,4.9 -16.4,4.9 -7.8,0 -14,-3.5 -6.1,-3.5 -9.6,-9.9 -3.5,-6.5 -3.5,-15 0,-8.5 3.4,-14.9 3.4,-6.4 9.5,-9.8 6.2,-3.5 14.2,-3.5 7.8,0 13.8,3.4 6,3.4 9.2,9.4 3.3,5.9 3.3,13.4 z m -9.4,-1.9 q 0,-5.2 -2.3,-8.9 -2.3,-3.8 -6.3,-5.7 -3.9,-2 -8.7,-2 -6.9,0 -11.8,4.4 -4.8,4.4 -5.5,12.2 z"
     style="fill:#00669b"
     id="path133824" /><path
     d="m 368.43995,388.06708 q 2.8,-4.9 8.2,-8 5.4,-3.1 12.3,-3.1 7.4,0 13.3,3.5 5.9,3.5 9.3,9.9 3.4,6.3 3.4,14.7 0,8.3 -3.4,14.8 -3.4,6.5 -9.4,10.1 -5.9,3.6 -13.2,3.6 -7.1,0 -12.5,-3.1 -5.3,-3.1 -8,-7.9 v 10.1 h -9.1 v -74 h 9.1 z m 37.2,17 q 0,-6.2 -2.5,-10.8 -2.5,-4.6 -6.8,-7 -4.2,-2.4 -9.3,-2.4 -5,0 -9.3,2.5 -4.2,2.4 -6.8,7.1 -2.5,4.6 -2.5,10.7 0,6.2 2.5,10.9 2.6,4.6 6.8,7.1 4.3,2.4 9.3,2.4 5.1,0 9.3,-2.4 4.3,-2.5 6.8,-7.1 2.5,-4.7 2.5,-11 z"
     style="fill:#00669b"
     id="path133826" /><path
     d="m 423.53983,405.06708 q 0,-8.4 3.4,-14.7 3.4,-6.4 9.3,-9.9 6,-3.5 13.3,-3.5 7.2,0 12.5,3.1 5.3,3.1 7.9,7.8 v -10 h 9.2 v 54.8 h -9.2 v -10.2 q -2.7,4.8 -8.1,8 -5.3,3.1 -12.4,3.1 -7.3,0 -13.2,-3.6 -5.9,-3.6 -9.3,-10.1 -3.4,-6.5 -3.4,-14.8 z m 46.4,0.1 q 0,-6.2 -2.5,-10.8 -2.5,-4.6 -6.8,-7 -4.2,-2.5 -9.3,-2.5 -5.1,0 -9.3,2.4 -4.2,2.4 -6.7,7 -2.5,4.6 -2.5,10.8 0,6.3 2.5,11 2.5,4.6 6.7,7.1 4.2,2.4 9.3,2.4 5.1,0 9.3,-2.4 4.3,-2.5 6.8,-7.1 2.5,-4.7 2.5,-10.9 z"
     style="fill:#00669b"
     id="path133828" /><path
     d="m 503.63971,358.66708 v 74 h -9.1 v -74 z"
     style="fill:#00669b"
     id="path133830" /><path
     d="m 528.23954,358.66708 v 74 h -9.1 v -74 z"
     style="fill:#00669b"
     id="path133832" /></g></svg>
